<?xml version="1.0" encoding="UTF-8"?>
<svg version="1.1" xmlns="http://www.w3.org/2000/svg" width="512" height="512">
<path d="M0 0 C1.00289063 -0.06058594 2.00578125 -0.12117188 3.0390625 -0.18359375 C11.14245969 1.32511837 17.41598524 9.18834243 23.02351379 14.81858826 C23.85719362 15.64773697 24.69087345 16.47688569 25.54981631 17.33116013 C27.84408905 19.61501983 30.13388877 21.90325288 32.42177474 24.19350731 C34.89737192 26.66951479 37.37869334 29.13977511 39.85922241 31.61083984 C44.70965928 36.44471562 49.55457649 41.28408671 54.39729808 46.12569075 C58.33349296 50.06093342 62.2712672 53.99458874 66.21014977 57.92714119 C77.38578184 69.08517899 88.55723056 80.24738099 99.72331802 91.41497039 C100.62489108 92.31666332 100.62489108 92.31666332 101.54467773 93.23657227 C102.44735352 94.13937069 102.44735352 94.13937069 103.36826517 95.06040747 C113.1317402 104.82469625 122.9051661 114.57895718 132.68312351 124.3287413 C142.7311135 134.34800852 152.77163234 144.37470932 162.8044073 154.40921265 C168.43408337 160.03955253 174.06679559 165.66677542 179.70755959 171.28600883 C184.50701874 176.06726487 189.29949887 180.85538237 194.08306906 185.65253716 C196.52298367 188.098984 198.96599912 190.54210438 201.41784096 192.97660255 C204.07503503 195.61840742 206.71963462 198.27221216 209.36140442 200.9294281 C210.13707144 201.694808 210.91273846 202.46018789 211.71191055 203.24876112 C216.80194902 208.40490825 219.95686351 212.53489278 220.75 219.9375 C220.17902246 225.26662372 218.86047305 228.99315568 214.9765625 232.76953125 C210.39695505 236.43708069 205.09224898 238.87546684 199.875 241.5 C197.61622629 242.65437111 195.35843091 243.81065833 193.1015625 244.96875 C191.40435059 245.83886719 191.40435059 245.83886719 189.67285156 246.7265625 C184.82340767 249.2424718 180.03449455 251.86320996 175.25 254.5 C167.8396126 258.57531149 160.38380101 262.54650686 152.875 266.4375 C145.32504368 270.35000477 137.82793307 274.34318484 130.375 278.4375 C121.96910852 283.0553288 113.4955838 287.5248088 104.98046875 291.9375 C97.48608723 295.83173884 90.07064888 299.85775244 82.66870117 303.92431641 C74.9683157 308.14262614 67.1991111 312.22065067 59.40039062 316.25390625 C58.51158203 316.71410156 57.62277344 317.17429687 56.70703125 317.6484375 C55.83643066 318.09670898 54.96583008 318.54498047 54.06884766 319.00683594 C52.15855912 320.02136293 50.26924373 321.07583365 48.39599609 322.15722656 C46.93734131 322.99592285 46.93734131 322.99592285 45.44921875 323.8515625 C44.57225342 324.36928223 43.69528809 324.88700195 42.79174805 325.42041016 C40.375 326.4375 40.375 326.4375 38.59331894 326.34788609 C35.21770957 324.96255427 32.98302234 322.44667566 30.46514893 319.88841248 C29.87778324 319.30361006 29.29041755 318.71880765 28.6852529 318.11628395 C26.71427978 316.1502615 24.75423647 314.17369071 22.79394531 312.19702148 C21.38515052 310.7873807 19.97569524 309.37839974 18.56562805 307.97003174 C14.73485968 304.14012583 10.91342596 300.30102554 7.09356403 296.46024585 C3.10172595 292.44968286 -0.89858159 288.44758628 -4.89801025 284.44459534 C-12.47229316 276.86097966 -20.03889482 269.26974748 -27.60278726 261.67576987 C-36.21349327 253.03155822 -44.83269626 244.39584049 -53.45263433 235.76083648 C-71.18624752 217.99584636 -88.90912818 200.22018122 -106.625 182.4375 C-105.3542165 179.89190184 -104.08299422 177.34652438 -102.81152344 174.80126953 C-102.45496674 174.08691238 -102.09841003 173.37255524 -101.73104858 172.6365509 C-98.83178598 166.83407801 -95.87999271 161.06099834 -92.875 155.3125 C-92.36678711 154.33861328 -91.85857422 153.36472656 -91.33496094 152.36132812 C-87.92137445 145.84543721 -84.42248347 139.38125547 -80.875 132.9375 C-75.59886631 123.35234827 -70.57883001 113.64632452 -65.58609009 103.91192627 C-60.89692955 94.77449287 -56.09673386 85.71467774 -51.1328125 76.72265625 C-46.99588641 69.19590392 -43.05022123 61.57582192 -39.125 53.9375 C-33.24969997 42.50682722 -27.22405224 31.16853947 -20.99072266 19.92822266 C-20.00123335 18.12365171 -19.02914455 16.30950397 -18.06787109 14.48974609 C-17.54660645 13.50828613 -17.0253418 12.52682617 -16.48828125 11.515625 C-16.01817627 10.62004883 -15.54807129 9.72447266 -15.0637207 8.80175781 C-11.46392084 2.88618648 -6.81503956 0.28467887 0 0 Z " fill="#000000" transform="translate(231.625,43.5625)"/>
<path d="M0 0 C6.23265924 5.14957422 11.9146982 10.7796279 17.61694336 16.50341797 C18.67193464 17.55869177 19.72714706 18.61374453 20.78256226 19.66859436 C23.62934106 22.51508776 26.47303894 25.36464075 29.31617045 28.21477652 C32.29455549 31.19943795 35.27579684 34.18124362 38.25672913 37.1633606 C43.89318663 42.80291882 49.52709145 48.44501998 55.16007096 54.08805192 C61.57650594 60.51568723 67.99580077 66.94046318 74.41533077 73.36500716 C87.61339261 86.57350487 100.80788037 99.78556758 114 113 C112.34308794 116.50991544 110.44261276 118.81592013 107.69311523 121.58154297 C106.80136093 122.48282928 105.90960663 123.3841156 104.99082947 124.31271362 C104.01374697 125.28953453 103.03632635 126.26601731 102.05859375 127.2421875 C101.05146247 128.25320998 100.04455376 129.26445423 99.03785706 130.27590942 C96.92536413 132.39586024 94.809043 134.51189947 92.69018555 136.62548828 C89.99429074 139.31561766 87.30986864 142.01687257 84.62852383 144.72149467 C82.54981052 146.81505354 80.46408925 148.9015232 78.37639046 150.98611832 C77.3850267 151.97799082 76.3959822 152.97218767 75.40945244 153.96886826 C63.60548678 165.87923476 52.38827817 173.24746781 35.21484375 174.0234375 C9.14217163 173.83335727 -6.4977563 153.75317758 -23.59594727 136.75415039 C-25.65547476 134.70798375 -27.7220436 132.66935279 -29.79516602 130.63696289 C-32.33387227 128.14807151 -34.85961173 125.64666174 -37.37705421 123.13627052 C-38.7773349 121.74577497 -40.18970946 120.36749126 -41.60246277 118.9896698 C-52.6602558 107.89557439 -59.1516914 95.91732635 -59.4375 80.125 C-59.31644802 63.85023426 -52.16819522 51.63380673 -40.84939575 40.39620972 C-39.798252 39.36548062 -38.74688588 38.33497827 -37.6953125 37.3046875 C-36.6044177 36.22127124 -35.51441611 35.13695494 -34.42526245 34.05178833 C-31.58347303 31.22512829 -28.7298749 28.41069979 -25.87347412 25.59881592 C-22.94995468 22.71652599 -20.03800309 19.82259859 -17.125 16.9296875 C-11.42779962 11.27513331 -5.71804597 5.63347339 0 0 Z " fill="#000000" transform="translate(118,263)"/>
<path d="M0 0 C6.56993866 5.51766134 12.69510845 11.40549264 18.7890625 17.43896484 C20.01126727 18.64459183 21.23881535 19.84482635 22.47167969 21.03955078 C33.34238435 31.57724238 40.83746379 41.27509051 41.25 57 C40.96079793 68.02370247 37.49601502 77.58899466 29.9375 85.75 C19.93571178 95.23068665 9.09508457 97.57523155 -4.1171875 97.3359375 C-20.7820982 96.56127204 -32.27075044 83.0671327 -43.29003906 71.97070312 C-45.14942219 70.10043484 -47.01947779 68.24130366 -48.890625 66.3828125 C-50.076164 65.19595461 -51.26108393 64.00847793 -52.4453125 62.8203125 C-53.004534 62.26513947 -53.56375549 61.70996643 -54.1399231 61.13796997 C-58 57.23001591 -58 57.23001591 -58 55 C-56.3125 53.5546875 -56.3125 53.5546875 -54 51.875 C-50.06439475 48.9063588 -46.60779423 45.75740708 -43.21484375 42.1875 C-41.31831911 40.31438924 -39.38288381 38.59121695 -37.36157227 36.85717773 C-33.06190875 33.10653721 -29.01792424 29.14605264 -25 25.09765625 C-24.2788501 24.3750914 -23.5577002 23.65252655 -22.81469727 22.9080658 C-20.54074585 20.62857396 -18.27032046 18.3456076 -16 16.0625 C-14.44684765 14.50432494 -12.89346433 12.94638007 -11.33984375 11.38867188 C-7.55722414 7.59510241 -3.7774831 3.79868385 0 0 Z " fill="#000000" transform="translate(254,399)"/>
<path d="M0 0 C0.66 0 1.32 0 2 0 C3.04198001 1.71334323 4.0062566 3.4740346 4.9375 5.25 C7.59311122 9.9459352 10.36423667 13.76442766 14.07495117 17.72583008 C14.55431468 18.23940724 15.03367819 18.75298441 15.52756786 19.28212452 C23.56082495 27.85069847 31.86028598 36.16368407 40.14135742 44.49145508 C42.2571826 46.62063959 44.36547636 48.75687728 46.4675293 50.8996582 C62.33476834 67.17209386 62.33476834 67.17209386 81 80 C81.66 80.66 82.32 81.32 83 82 C81.80375 82.474375 80.6075 82.94875 79.375 83.4375 C78.70210938 83.70433594 78.02921875 83.97117187 77.3359375 84.24609375 C61.9601653 89.20850852 44.23761791 85.92671536 30.125 78.8125 C24.0063962 75.26855621 18.95636623 71.01777254 14 66 C13.36449219 65.38640625 12.72898437 64.7728125 12.07421875 64.140625 C1.0707182 52.72235835 -3.56258077 36.95459851 -3.375 21.4375 C-3.38660156 20.47392578 -3.39820312 19.51035156 -3.41015625 18.51757812 C-3.38333199 11.88751539 -2.2446916 6.2321297 0 0 Z " fill="#000000" transform="translate(35,378)"/>
<path d="M0 0 C4.8846525 2.26787438 7.73212562 5.1153475 10 10 C10.83463636 16.2001558 10.99831894 21.0133045 7.34606934 26.27770996 C4.61891094 29.76709763 1.44863412 32.83486034 -1.6875 35.953125 C-2.79677856 37.06527374 -2.79677856 37.06527374 -3.9284668 38.19989014 C-5.48598675 39.75876596 -7.04601475 41.31513951 -8.60839844 42.86914062 C-10.99908561 45.24908972 -13.37888184 47.63955579 -15.7578125 50.03125 C-17.27540055 51.54751695 -18.79360862 53.06316364 -20.3125 54.578125 C-21.02301514 55.2926886 -21.73353027 56.0072522 -22.46557617 56.74346924 C-23.13306885 57.40465759 -23.80056152 58.06584595 -24.48828125 58.74707031 C-25.07134033 59.32853821 -25.65439941 59.9100061 -26.25512695 60.50909424 C-30.87764821 64.45880484 -35.19457053 64.42717381 -41.0859375 64.3125 C-46.38740101 63.74397844 -48.83972495 61.22134216 -52.375 57.5 C-54.72325726 52.44221514 -54.97097307 47.48314207 -54 42 C-50.87573178 36.58656669 -46.72477912 32.43401329 -42.3125 28.046875 C-41.57298096 27.3054425 -40.83346191 26.56401001 -40.0715332 25.80010986 C-38.51401325 24.24123404 -36.95398525 22.68486049 -35.39160156 21.13085938 C-33.00091439 18.75091028 -30.62111816 16.36044421 -28.2421875 13.96875 C-26.72459945 12.45248305 -25.20639138 10.93683636 -23.6875 9.421875 C-22.97698486 8.7073114 -22.26646973 7.9927478 -21.53442383 7.25653076 C-20.86693115 6.59534241 -20.19943848 5.93415405 -19.51171875 5.25292969 C-18.92865967 4.67146179 -18.34560059 4.0899939 -17.74487305 3.49090576 C-12.47667871 -1.01049983 -6.62819829 -0.71079874 0 0 Z " fill="#000000" transform="translate(422,64)"/>
<path d="M0 0 C0.95390625 -0.0038269 1.9078125 -0.00765381 2.890625 -0.01159668 C4.90105245 -0.01431036 6.91151553 -0.00698737 8.921875 0.00976562 C11.99038787 0.03118291 15.05655952 0.00994534 18.125 -0.015625 C20.08333848 -0.01298163 22.0416755 -0.00785645 24 0 C25.36898437 -0.01214539 25.36898437 -0.01214539 26.765625 -0.02453613 C32.34723968 0.05719316 35.57473138 0.80813314 40 4.53125 C43.62833663 8.35055172 44.31000458 11.41404006 44.5 16.53125 C44.31000458 21.64845994 43.62833663 24.71194828 40 28.53125 C34.73573631 32.96023965 30.57725694 33.12085225 24 33.0625 C22.56914062 33.06824036 22.56914062 33.06824036 21.109375 33.07409668 C19.09894755 33.07681036 17.08848447 33.06948737 15.078125 33.05273438 C12.00961213 33.03131709 8.94344048 33.05255466 5.875 33.078125 C3.91666152 33.07548163 1.9583245 33.07035645 0 33.0625 C-1.36898438 33.07464539 -1.36898438 33.07464539 -2.765625 33.08703613 C-8.34723968 33.00530684 -11.57473138 32.25436686 -16 28.53125 C-19.62833663 24.71194828 -20.31000458 21.64845994 -20.5 16.53125 C-20.31000458 11.41404006 -19.62833663 8.35055172 -16 4.53125 C-10.73573631 0.10226035 -6.57725694 -0.05835225 0 0 Z " fill="#000000" transform="translate(436,159.46875)"/>
<path d="M0 0 C4.96592669 2.30560882 7.41978039 5.22082111 10 10 C10.57098662 13.33824707 10.56124181 16.61943061 10.53125 20 C10.5350769 20.95390625 10.53890381 21.9078125 10.54284668 22.890625 C10.54556036 24.90105245 10.53823737 26.91151553 10.52148438 28.921875 C10.50006709 31.99038787 10.52130466 35.05655952 10.546875 38.125 C10.54423163 40.08333848 10.53910645 42.0416755 10.53125 44 C10.53934692 44.91265625 10.54744385 45.8253125 10.55578613 46.765625 C10.47405684 52.34723968 9.72311686 55.57473138 6 60 C2.18069828 63.62833663 -0.88279006 64.31000458 -6 64.5 C-11.11720994 64.31000458 -14.18069828 63.62833663 -18 60 C-22.42898965 54.73573631 -22.58960225 50.57725694 -22.53125 44 C-22.5350769 43.04609375 -22.53890381 42.0921875 -22.54284668 41.109375 C-22.54556036 39.09894755 -22.53823737 37.08848447 -22.52148438 35.078125 C-22.50006709 32.00961213 -22.52130466 28.94344048 -22.546875 25.875 C-22.54423163 23.91666152 -22.53910645 21.9583245 -22.53125 20 C-22.53934692 19.08734375 -22.54744385 18.1746875 -22.55578613 17.234375 C-22.47405684 11.65276032 -21.72311686 8.42526862 -18 4 C-12.72867143 -1.00776214 -6.89190982 -0.92775709 0 0 Z " fill="#000000" transform="translate(326,16)"/>
</svg>
