<?xml version="1.0" encoding="UTF-8"?>
<svg version="1.1" xmlns="http://www.w3.org/2000/svg" width="512" height="512">
<path d="M0 0 C6.46161641 7.89753117 6.6078703 16.67342381 5.66629028 26.47317505 C5.16005447 30.83267283 4.60797285 35.18399646 4.03515625 39.53515625 C3.92676989 40.36956804 3.81838352 41.20397984 3.70671272 42.06367683 C0.5559822 66.240432 -3.20712276 90.32920427 -6.94042969 114.42137909 C-7.57055266 118.48809623 -8.19879923 122.55510214 -8.8269043 126.62213135 C-12.05571616 147.52263132 -15.31182699 168.41884028 -18.57978535 189.31325245 C-18.86366336 191.12829755 -19.14750842 192.94334781 -19.43132305 194.75840282 C-23.79281589 222.65087125 -28.17823598 250.53949256 -32.58680481 278.42455846 C-33.68576027 285.37859125 -34.77969838 292.33340217 -35.87161255 299.2885437 C-37.21219763 307.82662122 -38.56033881 316.36346597 -39.91787308 324.89886564 C-40.61717238 329.29671122 -41.31324127 333.69500261 -42.00054741 338.09473991 C-42.63597851 342.16149657 -43.28111194 346.22659646 -43.93365753 350.29064095 C-44.16799502 351.76053135 -44.39893199 353.23096913 -44.62597859 354.70200336 C-46.83637562 368.99757802 -49.57358978 382.88714984 -60.9609375 392.67578125 C-66.55147666 396.30641875 -71.42784196 397.53551896 -78.0625 397.4375 C-78.80564453 397.42847656 -79.54878906 397.41945313 -80.31445312 397.41015625 C-90.82807215 397.08638355 -100.03041118 393.63557316 -109.5 389.3125 C-110.139375 389.02246094 -110.77875 388.73242188 -111.4375 388.43359375 C-123.15899738 382.80541445 -133.86473336 374.79828736 -144.64764404 367.57452393 C-155.25163509 360.47148322 -165.88115631 353.40848717 -176.546875 346.3984375 C-177.52784149 345.75342285 -178.50880798 345.1084082 -179.51950073 344.44384766 C-184.36437107 341.25883411 -189.21129531 338.07700764 -194.06103516 334.89941406 C-202.86389564 329.12150069 -211.54525991 323.27854741 -220 317 C-222.04169302 315.55219495 -224.09432138 314.12111773 -226.14819336 312.69067383 C-265.17183645 285.48449064 -265.17183645 285.48449064 -269 274 C-269.89307671 265.93970004 -269.42715661 259.95895186 -264.76953125 253.20703125 C-261.0217802 248.53268391 -256.77252235 244.65451412 -252.25390625 240.7421875 C-248.18547012 237.18909285 -244.23777399 233.52234172 -240.3125 229.8125 C-235.41813845 225.20440493 -230.51185416 220.6114869 -225.5625 216.0625 C-220.38889732 211.30033166 -215.2498988 206.502034 -210.125 201.6875 C-209.42318604 201.02951416 -208.72137207 200.37152832 -207.99829102 199.69360352 C-204.77729463 196.66259573 -201.59550764 193.60864868 -198.4921875 190.45703125 C-196.10133519 188.04411058 -193.63684823 185.77844628 -191.0625 183.5625 C-186.82969114 179.90874592 -182.91370627 175.99014584 -179 172 C-177.6692679 170.64327703 -176.3359398 169.28909535 -175 167.9375 C-174.13375 167.05384766 -174.13375 167.05384766 -173.25 166.15234375 C-171.29135474 164.27870914 -169.28997705 162.50728201 -167.23901367 160.73681641 C-163.03948101 157.08395735 -159.09495014 153.2230308 -155.17578125 149.2734375 C-154.46648972 148.56273102 -153.75719818 147.85202454 -153.02641296 147.11978149 C-150.78605515 144.87388523 -148.54921488 142.62452373 -146.3125 140.375 C-144.8016664 138.85914163 -143.2906006 137.34351466 -141.77929688 135.828125 C-138.40614196 132.44508468 -135.03524433 129.05981451 -131.66651917 125.67236328 C-130.16154658 124.16211309 -128.65128558 122.65738061 -127.13964844 121.15380859 C-121.73739134 115.71579945 -117.21310612 109.41461031 -115 102 C-115.09330258 99.06996363 -115.09330258 99.06996363 -116 97 C-122.2214485 96.64013869 -126.27131699 97.4767451 -131.8125 100.25 C-132.53969238 100.60425049 -133.26688477 100.95850098 -134.01611328 101.32348633 C-146.2659531 107.46406098 -157.5683274 115.28569294 -168.8359375 123.0390625 C-178.94077993 129.97129872 -189.08933381 136.83743114 -199.25 143.6875 C-200.62315369 144.61385757 -200.62315369 144.61385757 -202.02404785 145.55892944 C-216.39104986 155.24998405 -230.80301887 164.87165705 -245.23562622 174.46463013 C-255.32711553 181.17552882 -265.34831232 187.96180487 -275.26074219 194.93530273 C-287.89090289 203.78360991 -300.77997896 212.26043098 -313.63838196 220.7721405 C-317.17406737 223.11377779 -320.69833271 225.46955804 -324.20117188 227.86010742 C-325.20911804 228.54401047 -325.20911804 228.54401047 -326.23742676 229.24172974 C-327.49055464 230.09297421 -328.74044665 230.94901268 -329.98620605 231.81100464 C-344.26687873 241.48096273 -363.02452805 241.78663484 -379.52368164 238.73974609 C-392.30696982 236.06433434 -404.76122283 231.83887858 -417.19525146 227.88830566 C-420.28797189 226.90879501 -423.3833536 225.93798347 -426.47900391 224.96777344 C-432.35579953 223.12348493 -438.22537995 221.25750728 -444.09115601 219.378479 C-446.43597147 218.62969807 -448.78250507 217.88627516 -451.13076782 217.14837646 C-454.45992785 216.09983842 -457.78123121 215.02924525 -461.1015625 213.953125 C-462.59650993 213.48934952 -462.59650993 213.48934952 -464.12165833 213.01620483 C-471.59379638 210.55565326 -476.92770801 207.49699273 -481 200.625 C-482.17770493 196.35581962 -482.58276826 193.13363749 -481 189 C-473.24365295 176.36823481 -457.07799476 170.88543155 -443.91110229 165.64682007 C-441.40323227 164.64899843 -438.90051351 163.63908122 -436.39868164 162.6262207 C-433.71244903 161.53892832 -431.0259181 160.45243904 -428.33790588 159.36955261 C-418.97241849 155.59612605 -409.64139649 151.7406397 -400.31253052 147.87774658 C-396.44425407 146.27630173 -392.57485164 144.67758679 -388.70549011 143.07876587 C-383.80340288 141.05313276 -378.90172798 139.02650227 -374 137 C-366.18775574 133.77021433 -358.37533204 130.54086361 -350.5625 127.3125 C-349.12590027 126.7188414 -349.12590027 126.7188414 -347.66027832 126.1131897 C-334.51097397 120.68013798 -321.35309153 115.26845235 -308.1875 109.875 C-293.38450113 103.8106173 -278.60138372 97.69942514 -263.8269043 91.56591797 C-250.89066976 86.1958742 -237.9469055 80.84426138 -225 75.5 C-210.39133626 69.46915388 -195.78615399 63.4300388 -181.1875 57.375 C-180.34907562 57.02725525 -179.51065125 56.6795105 -178.64682007 56.32122803 C-172.76435453 53.88128184 -166.88214566 51.44071722 -161 49 C-134.84691123 38.1481276 -108.68959746 27.30659303 -82.51278687 16.51203918 C-76.82670443 14.16710023 -71.14222661 11.81832577 -65.45892334 9.46665955 C-61.84838798 7.97357404 -58.23653691 6.48369242 -54.62432861 4.99465942 C-52.93640524 4.29812411 -51.24901318 3.60029964 -49.56219482 2.90109253 C-47.24212036 1.93964632 -44.92014387 0.98294304 -42.59765625 0.02734375 C-41.92687546 -0.2519397 -41.25609467 -0.53122314 -40.56498718 -0.81896973 C-28.33587348 -5.82944391 -10.88824106 -10.05068405 0 0 Z " fill="#000000" transform="translate(494,60)"/>
</svg>
