<?xml version="1.0" encoding="UTF-8"?>
<svg version="1.1" xmlns="http://www.w3.org/2000/svg" width="512" height="512">
<path d="M0 0 C21.037306 7.83698218 42.30339126 14.97351014 64.33309937 19.47821045 C74.47736476 21.57045083 80.89901213 25.6709184 86.89559937 34.22821045 C89.07285169 38.43131676 89.16425381 42.09445521 89.14559937 46.79071045 C89.15333374 48.74170654 89.15333374 48.74170654 89.16122437 50.7321167 C88.9208016 53.89650458 88.57971907 55.60178567 86.89559937 58.22821045 C78.82210894 57.56165766 71.13990925 55.32019767 63.34481812 53.22821045 C61.83897636 52.82804065 60.33301833 52.42830819 58.82695007 52.0289917 C54.88301604 50.98192603 50.94082491 49.92843748 46.99893188 48.87371826 C43.77539318 48.01239224 40.5506289 47.15571071 37.32579327 46.29925537 C33.47755221 45.27713565 29.62985708 44.25296949 25.78231812 43.22821045 C25.0494779 43.03307861 24.31663769 42.83794678 23.56159019 42.63690186 C21.49123544 42.08510074 19.42125603 41.53191603 17.35140991 40.97821045 C16.17418869 40.6636792 14.99696747 40.34914795 13.78407288 40.02508545 C11.80579885 39.4793172 9.84246557 38.87716585 7.89559937 38.22821045 C3.59705843 37.74531727 0.09128689 37.49913269 -3.66690063 39.79071045 C-5.69365521 43.22738126 -5.72426824 45.3023823 -5.10440063 49.22821045 C-0.76600296 55.57082036 6.23913202 56.37406049 13.34091187 58.1461792 C14.67541114 58.49156882 16.00954311 58.83838045 17.34332275 59.1865387 C20.13650498 59.91198129 22.93221154 60.6262353 25.7305603 61.33148193 C29.28786952 62.22802308 32.84018416 63.14261256 36.39097786 64.06458569 C39.81028257 64.95182475 43.2316606 65.83093023 46.65341187 66.7086792 C48.54617355 67.19463814 48.54617355 67.19463814 50.47717285 67.69041443 C60.2926873 70.16848647 70.03881115 72.58321185 80.20809937 72.60321045 C81.52423218 72.63156982 82.84036499 72.6599292 84.19638062 72.68914795 C96.8164595 71.93999799 107.58676406 66.19904701 118.39559937 60.22821045 C119.80965078 59.46038823 121.22437428 58.69380256 122.63973999 57.92840576 C126.1088764 56.04857082 129.56956696 54.15382249 133.0274353 52.25335693 C135.68723726 50.79380278 138.35375487 49.3467228 141.02059937 47.90008545 C144.55585409 45.98022826 148.0870045 44.05318586 151.61434937 42.11883545 C158.36431597 38.41904173 165.13618681 34.75979834 171.90805054 31.10028076 C176.92021721 28.38959005 181.92484473 25.66650495 186.91513062 22.91571045 C188.37596069 22.11230225 188.37596069 22.11230225 189.86630249 21.29266357 C191.68847712 20.28952826 193.50895066 19.28329306 195.32723999 18.27313232 C210.45846875 9.95271187 227.23519254 2.01053674 244.90341187 5.8883667 C252.30831105 8.21879137 257.20375667 11.7498174 261.20809937 18.4118042 C264.80817022 26.02445402 265.37619516 34.78880238 263.16513062 42.9118042 C260.00846122 50.55223258 255.19641767 55.52977413 248.04403687 59.53289795 C246.70124235 60.3111819 245.35846956 61.08950332 244.01571655 61.86785889 C243.33150635 62.25888794 242.64729614 62.64991699 241.94235229 63.05279541 C238.70905685 64.90962143 235.51158958 66.82580494 232.30966187 68.73602295 C231.03062864 69.494931 229.75132863 70.25338961 228.47177124 71.01141357 C217.42941517 77.55559482 206.3960077 84.11366863 195.39559937 90.72821045 C186.05882803 96.34105843 176.70178703 101.91887146 167.33309937 107.47821045 C166.66301849 107.87584595 165.99293762 108.27348145 165.30255127 108.6831665 C159.80996826 111.9422138 154.3164819 115.19973732 148.82296753 118.45721436 C144.70918721 120.89662668 140.59569432 123.33652239 136.48260498 125.77709961 C135.13784299 126.57492807 133.79297477 127.37257752 132.44799805 128.17004395 C125.51132131 132.28320658 118.58231171 136.40789523 111.68075562 140.57977295 C110.55274536 141.26072021 109.42473511 141.94166748 108.26254272 142.64324951 C106.18445605 143.89958507 104.10826723 145.15906844 102.03451538 146.42254639 C80.57207875 159.39853666 63.06704752 162.6296807 38.60084152 156.66915512 C32.5560254 155.14139587 26.53690283 153.51762447 20.51669312 151.8961792 C18.5731189 151.37635978 16.62943677 150.85694373 14.68565369 150.33790588 C9.5984397 148.97827844 4.51276964 147.61296211 -0.57260132 146.24645996 C-5.68442596 144.87405045 -10.79783456 143.50756915 -15.91104126 142.14031982 C-29.61949741 138.47233586 -29.61949741 138.47233586 -35.94641018 136.77235889 C-37.69106968 136.30424132 -39.43624032 135.8380242 -41.18193913 135.37379742 C-45.80806047 134.13862675 -50.41362618 132.85334948 -55.00720215 131.50180054 C-55.98784354 131.21894101 -56.96848494 130.93608149 -57.97884274 130.64465046 C-59.8484337 130.10402602 -61.71441656 129.55068848 -63.57566929 128.98202038 C-69.52656997 127.27844822 -73.99351952 127.18158798 -80.10440063 128.22821045 C-80.40507446 127.67173828 -80.70574829 127.11526611 -81.01553345 126.54193115 C-87.04238025 115.40274207 -93.14847695 104.3188745 -99.46084595 93.33880615 C-103.99173287 85.45075755 -108.43646583 77.51598581 -112.8644104 69.56976318 C-115.74604809 64.40691265 -118.65214244 59.26166294 -121.62393188 54.15008545 C-122.17887329 53.19295654 -122.7338147 52.23582764 -123.30557251 51.24969482 C-124.35157404 49.45057219 -125.40333329 47.6547802 -126.46182251 45.86297607 C-126.9278186 45.06053467 -127.3938147 44.25809326 -127.87393188 43.43133545 C-128.48651855 42.38961182 -128.48651855 42.38961182 -129.11148071 41.32684326 C-130.22251046 38.97857386 -130.69232373 36.78492862 -131.10440063 34.22821045 C-130.10195312 33.67061035 -130.10195312 33.67061035 -129.07925415 33.10174561 C-113.13496263 24.2457808 -113.13496263 24.2457808 -97.35440063 15.10321045 C-62.12173362 -5.73736712 -39.40220762 -14.72286925 0 0 Z " fill="#000000" transform="translate(229.10440063476563,290.77178955078125)"/>
<path d="M0 0 C22.69269733 19.29486029 37.87239057 44.13885672 41.75 74.00390625 C44.19313879 105.45931815 37.17147933 135.61774949 16.44238281 160.01464844 C-3.38160084 182.63731213 -29.81696898 196.9152617 -59.96875 199.625 C-83.69371509 201.08384689 -105.29432406 196.19787318 -125.96875 184.625 C-126.96648437 184.06941406 -127.96421875 183.51382813 -128.9921875 182.94140625 C-136.53716691 178.43387557 -142.67689044 172.69053368 -148.96875 166.625 C-149.62746094 166.02945313 -150.28617188 165.43390625 -150.96484375 164.8203125 C-169.77540777 147.35646322 -180.1268078 118.6521448 -181.25390625 93.51171875 C-182.02056847 64.04144032 -173.14620418 35.58377036 -152.96875 13.625 C-152.52160645 13.13547852 -152.07446289 12.64595703 -151.61376953 12.14160156 C-112.61290601 -30.08590394 -45.26738789 -35.81595526 0 0 Z M-78.96875 9.625 C-80.93405377 12.80235523 -81.19132519 15.16714276 -81.09375 18.875 C-81.07570313 19.76703125 -81.05765625 20.6590625 -81.0390625 21.578125 C-81.01585937 22.25359375 -80.99265625 22.9290625 -80.96875 23.625 C-82.3609375 23.686875 -82.3609375 23.686875 -83.78125 23.75 C-92.2756248 24.95854926 -101.19913549 30.94384142 -106.51953125 37.55078125 C-113.26264924 46.97106767 -116.44713882 56.5824276 -114.56640625 68.0859375 C-112.29109447 77.51435362 -106.1744309 85.91707727 -98.1640625 91.3515625 C-89.009894 96.66163177 -80.48318092 99.15423774 -70.04077148 100.265625 C-55.46319017 101.86627444 -55.46319017 101.86627444 -50.57421875 107.125 C-47.83969566 111.07588286 -47.3715302 114.78244477 -48.171875 119.48046875 C-49.90097476 124.13378134 -53.65759226 126.3643685 -57.859375 128.65625 C-65.32042055 131.93183098 -73.32577783 131.50010637 -80.86328125 128.671875 C-86.5353329 125.85163411 -89.78492185 121.97962006 -92.96875 116.625 C-96.06788155 113.89047216 -98.44854811 113.38219194 -102.46875 113.5625 C-105.81079666 114.07494715 -107.68821303 114.79330218 -109.96875 117.3125 C-112.62470528 121.67405037 -112.62470528 121.67405037 -112.96875 126.625 C-110.76308855 132.63252527 -107.85498905 137.4367951 -102.96875 141.625 C-102.47890625 142.10453125 -101.9890625 142.5840625 -101.484375 143.078125 C-95.88897944 148.35378367 -88.77439791 152.625 -80.96875 152.625 C-81.01515625 153.27726563 -81.0615625 153.92953125 -81.109375 154.6015625 C-81.35269092 160.49328361 -81.0945431 164.04078544 -76.96875 168.625 C-73.55417996 171.21536348 -70.13592829 171.05608741 -65.96875 170.625 C-61.96607045 168.51037684 -59.59293574 166.85543726 -57.96875 162.625 C-57.72845041 160.03345081 -57.72845041 160.03345081 -57.84375 157.375 C-57.86179687 156.48296875 -57.87984375 155.5909375 -57.8984375 154.671875 C-57.92164063 153.99640625 -57.94484375 153.3209375 -57.96875 152.625 C-57.040625 152.58375 -56.1125 152.5425 -55.15625 152.5 C-46.4596324 151.26267636 -37.63567232 145.05223451 -32.16015625 138.44140625 C-25.84540281 130.02611113 -22.58819147 121.21451146 -23.96875 110.625 C-26.39678503 99.59767423 -31.65068833 91.34413472 -40.9453125 84.8984375 C-49.57517367 79.46728935 -58.39101366 76.73216401 -68.59375 76.125 C-75.76315345 75.69824979 -81.81957925 74.83235347 -86.96875 69.625 C-87.62875 69.625 -88.28875 69.625 -88.96875 69.625 C-91.65799267 63.45556093 -91.05389835 57.88044504 -88.96875 51.625 C-87.28125 50.625 -87.28125 50.625 -84.96875 49.625 C-83.97875 49.109375 -82.98875 48.59375 -81.96875 48.0625 C-75.63815142 45.02908818 -68.49284924 44.52063234 -61.6484375 46.19140625 C-59.71242402 46.89440734 -57.83603589 47.75574622 -55.96875 48.625 C-55.081875 48.99625 -54.195 49.3675 -53.28125 49.75 C-50.25114478 52.20684207 -49.00171793 55.04139321 -47.21484375 58.46484375 C-44.920934 62.44143338 -42.33801485 64.18800058 -38.03125 65.5625 C-34.0955928 65.64281953 -32.22794453 64.82141371 -28.96875 62.625 C-25.82183694 59.15532663 -24.96875 57.46636845 -24.96875 52.75 C-26.62165501 44.15816704 -31.535682 36.85939856 -38.5546875 31.73828125 C-47.58291277 25.68876838 -47.58291277 25.68876838 -57.96875 23.625 C-57.92234375 22.97273438 -57.8759375 22.32046875 -57.828125 21.6484375 C-57.58368999 15.72961838 -57.89896552 12.27618227 -61.96875 7.625 C-67.77351369 3.75515754 -74.20700982 4.43037435 -78.96875 9.625 Z " fill="#000000" transform="translate(355.96875,54.375)"/>
<path d="M0 0 C0.73863281 0.04382813 1.47726563 0.08765625 2.23828125 0.1328125 C9.84051977 2.43652114 12.77054527 8.98896657 16.29370117 15.55810547 C16.96665189 16.83039424 17.63958443 18.10269264 18.3125 19.375 C19.02102683 20.69108393 19.73108639 22.00634378 20.44262695 23.32080078 C21.51585002 25.30340863 22.58837768 27.28633708 23.65638733 29.27175903 C26.64033799 34.81630988 29.72970539 40.29532001 32.875 45.75 C33.83876809 47.42695322 34.8023099 49.10403652 35.765625 50.78125 C36.24193359 51.61011719 36.71824219 52.43898438 37.20898438 53.29296875 C39.86679233 57.93447749 42.49542079 62.59245862 45.125 67.25 C45.66753418 68.21059326 46.21006836 69.17118652 46.76904297 70.16088867 C48.93650295 73.99946094 51.10295652 77.83859971 53.26855469 81.67822266 C54.3170508 83.53709847 55.36596316 85.39573955 56.4152832 87.25415039 C57.47013934 89.12350953 58.52336783 90.99378807 59.57495117 92.86499023 C62.31122956 97.722184 65.07826954 102.55824146 67.90715027 107.36198425 C69.39390388 109.88855204 70.87080757 112.42082178 72.34750366 114.95327759 C73.06601215 116.17884785 73.78940064 117.40157203 74.51797485 118.6211853 C81.73663338 130.70971485 81.73663338 130.70971485 81.6875 137.875 C79.37025012 145.59916626 74.6174772 148.50854464 67.8359375 152.29296875 C66.73765625 152.90720703 65.639375 153.52144531 64.5078125 154.15429688 C62.80238281 155.09885742 62.80238281 155.09885742 61.0625 156.0625 C59.9178125 156.70380859 58.773125 157.34511719 57.59375 158.00585938 C45.96858973 164.48175748 45.96858973 164.48175748 38.6875 163.875 C31.03107576 160.87782325 28.42348804 155.18313769 24.625 148.1875 C23.97312042 147.01875266 23.3195244 145.85096121 22.66430664 144.68408203 C20.98006168 141.67586911 19.31616409 138.6569053 17.65673828 135.63494873 C15.57551483 131.8558506 13.46036937 128.09563973 11.35131836 124.33203125 C10.19608616 122.26957172 9.04327061 120.2057568 7.89282227 118.140625 C3.87268554 110.93530738 -0.25577793 103.8000508 -4.4375 96.6875 C-9.42285036 88.20307629 -14.22320734 79.63933706 -18.89916992 70.98095703 C-23.34182255 62.76893895 -27.96337061 54.66569639 -32.62109375 46.57421875 C-33.06630371 45.7951416 -33.51151367 45.01606445 -33.97021484 44.21337891 C-34.88721347 42.61588657 -35.81515038 41.02463624 -36.75244141 39.43896484 C-37.2066748 38.65602051 -37.6609082 37.87307617 -38.12890625 37.06640625 C-38.5369751 36.37361572 -38.94504395 35.6808252 -39.36547852 34.96704102 C-41.44452994 30.37426152 -41.03454022 25.8154831 -39.3125 21.1875 C-33.60028471 14.58275107 -25.59271163 10.61901859 -18 6.5625 C-17.01193359 6.02560547 -16.02386719 5.48871094 -15.00585938 4.93554688 C-5.11079107 -0.40603867 -5.11079107 -0.40603867 0 0 Z " fill="#000000" transform="translate(59.3125,317.125)"/>
</svg>
