<?xml version="1.0" standalone="no"?>
<!DOCTYPE svg PUBLIC "-//W3C//DTD SVG 20010904//EN"
 "http://www.w3.org/TR/2001/REC-SVG-20010904/DTD/svg10.dtd">
<svg version="1.0" xmlns="http://www.w3.org/2000/svg"
 width="512.000000pt" height="512.000000pt" viewBox="0 0 512.000000 512.000000"
 preserveAspectRatio="xMidYMid meet">

<g transform="translate(0.000000,512.000000) scale(0.100000,-0.100000)"
fill="#000000" stroke="none">
<path d="M941 4415 c-259 -57 -391 -248 -392 -569 -1 -175 48 -340 142 -481
199 -297 506 -343 734 -110 150 153 235 366 235 589 0 384 -194 587 -560 585
-52 0 -124 -7 -159 -14z"/>
<path d="M3861 4415 c-259 -57 -391 -248 -392 -569 -1 -175 48 -340 142 -481
199 -297 506 -343 734 -110 150 153 235 366 235 589 0 384 -194 587 -560 585
-52 0 -124 -7 -159 -14z"/>
<path d="M2385 3856 c-230 -45 -374 -181 -437 -413 -30 -113 -30 -355 0 -465
113 -413 391 -660 684 -610 115 20 189 62 293 167 124 125 195 253 247 445 30
112 32 315 4 435 -52 227 -185 373 -391 430 -82 22 -309 29 -400 11z"/>
<path d="M368 3157 c-211 -172 -324 -445 -359 -867 -15 -177 -9 -233 32 -310
112 -210 441 -336 917 -353 l72 -2 6 35 c64 397 183 672 383 891 60 66 183
168 246 204 17 10 17 16 -9 111 -14 55 -26 110 -26 122 0 12 -3 22 -6 22 -3 0
-29 -21 -57 -46 -59 -51 -225 -136 -307 -155 -79 -19 -251 -17 -330 4 -188 50
-350 168 -478 345 l-30 43 -54 -44z"/>
<path d="M4660 3139 c-24 -33 -73 -88 -110 -122 -293 -277 -677 -299 -979 -56
-33 27 -63 49 -66 49 -3 0 -5 -10 -5 -22 0 -13 -11 -65 -25 -117 -14 -52 -24
-95 -23 -96 2 -1 21 -14 43 -27 132 -82 266 -217 362 -363 114 -172 212 -453
239 -688 4 -32 11 -60 15 -63 14 -8 304 14 401 31 340 59 556 200 599 391 15
65 1 303 -26 459 -30 177 -99 358 -178 475 -35 51 -139 163 -178 190 l-25 19
-44 -60z"/>
<path d="M1748 2441 c-266 -202 -423 -615 -430 -1136 -2 -103 1 -128 20 -175
62 -155 235 -282 487 -355 353 -102 993 -114 1375 -24 249 58 435 157 524 278
78 105 90 169 76 379 -23 359 -102 639 -233 832 -55 80 -231 250 -259 250 -3
0 -28 -31 -56 -68 -287 -386 -762 -485 -1133 -236 -72 48 -205 180 -259 257
-18 26 -36 47 -40 47 -4 0 -36 -22 -72 -49z"/>
</g>
</svg>
