<?xml version="1.0" encoding="UTF-8"?>
<svg version="1.1" xmlns="http://www.w3.org/2000/svg" width="512" height="512">
<path d="M0 0 C1.18770996 0.30599121 1.18770996 0.30599121 2.39941406 0.61816406 C24.91361302 6.55113479 45.87696274 16.25143452 64 31 C64.56460937 31.45777832 65.12921875 31.91555664 65.7109375 32.38720703 C94.0068322 55.48573898 111.93865957 85.82825683 121 121 C121.18079102 121.68094727 121.36158203 122.36189453 121.54785156 123.06347656 C126.90110245 144.25298457 126.6002956 171.9065515 121 193 C120.69400879 194.18770996 120.69400879 194.18770996 120.38183594 195.39941406 C114.44886521 217.91361302 104.74856548 238.87696274 90 257 C89.54222168 257.56460937 89.08444336 258.12921875 88.61279297 258.7109375 C65.51426102 287.0068322 35.17174317 304.93865957 0 314 C-1.0214209 314.27118652 -1.0214209 314.27118652 -2.06347656 314.54785156 C-24.80927726 320.29427936 -53.49801979 319.20238837 -76 313 C-77.43593506 312.60530518 -77.43593506 312.60530518 -78.90087891 312.20263672 C-102.84388554 305.37337236 -124.53099767 294.12263594 -142.76953125 277.07421875 C-144.81160319 275.17519913 -146.91451582 273.40162345 -149.0625 271.625 C-154.02382845 267.29130948 -157.96709594 262.18417752 -162 257 C-162.74378906 256.071875 -163.48757812 255.14375 -164.25390625 254.1875 C-178.41272324 236.06421426 -187.29363832 215.14933753 -193 193 C-193.18079102 192.31905273 -193.36158203 191.63810547 -193.54785156 190.93652344 C-198.90110245 169.74701543 -198.6002956 142.0934485 -193 121 C-192.69400879 119.81229004 -192.69400879 119.81229004 -192.38183594 118.60058594 C-186.44886521 96.08638698 -176.74856548 75.12303726 -162 57 C-161.54222168 56.43539062 -161.08444336 55.87078125 -160.61279297 55.2890625 C-137.51426102 26.9931678 -107.17174317 9.06134043 -72 0 C-71.31905273 -0.18079102 -70.63810547 -0.36158203 -69.93652344 -0.54785156 C-48.74701543 -5.90110245 -21.0934485 -5.6002956 0 0 Z M-54.65234375 53.86328125 C-60.95725897 62.98256442 -60.05064663 73.11850371 -59.45347595 83.63759804 C-56.1069671 146.62132623 -56.1069671 146.62132623 -69.7702179 162.04174805 C-74.86341531 167.14018755 -80.64357608 171.42557195 -86.69212341 175.32421875 C-93.47267243 179.7069961 -97.07713755 184.72949924 -98.796875 192.6875 C-98.68186965 200.81454465 -97.64640709 206.89426218 -92 213 C-86.74452012 217.2832161 -80.92776931 220.53795178 -74 220 C-62.06683167 218.14500428 -54.81461161 208.9790424 -46.57421875 200.8125 C-45.27010796 199.52049683 -45.27010796 199.52049683 -43.93965149 198.20239258 C-42.11544787 196.39193715 -40.29273065 194.5799829 -38.47143555 192.76660156 C-36.61096926 190.91771935 -34.74602819 189.0733294 -32.87670898 187.23339844 C-30.16186972 184.56116076 -27.46046247 181.87598055 -24.76171875 179.1875 C-23.51016243 177.96220581 -23.51016243 177.96220581 -22.23332214 176.7121582 C-13.64314053 168.08954016 -11.84784777 160.34850909 -11.85473633 148.38354492 C-11.85137772 147.53881119 -11.8480191 146.69407745 -11.84455872 145.82374573 C-11.83509219 143.04263827 -11.83310773 140.2615913 -11.83203125 137.48046875 C-11.82881555 135.53762284 -11.82545124 133.59477717 -11.82194519 131.65193176 C-11.81596457 127.58264607 -11.81410418 123.51338158 -11.81469727 119.4440918 C-11.8147988 114.24588315 -11.80115124 109.04781137 -11.78392506 103.84963512 C-11.77277187 99.83717736 -11.77077908 95.82475233 -11.77130699 91.81228065 C-11.7701317 89.89665569 -11.7657354 87.98102975 -11.75797462 86.06542015 C-11.74810813 83.37839725 -11.75107894 80.69166692 -11.75708008 78.00463867 C-11.75146057 77.22355743 -11.74584106 76.4424762 -11.74005127 75.63772583 C-11.78866839 67.01253506 -13.12799408 58.62162369 -19 52 C-25.22981103 46.45582282 -31.34652962 45.02720055 -39.58984375 45.421875 C-45.8408548 46.48161112 -50.45120926 49.12583172 -54.65234375 53.86328125 Z " fill="#000000" transform="translate(292,99)"/>
<path d="M0 0 C1.02040375 0.00215515 2.0408075 0.0043103 3.09213257 0.00653076 C17.71960524 0.05616648 32.07013838 0.30330288 46.4375 3.3125 C47.41235352 3.51117676 48.38720703 3.70985352 49.39160156 3.91455078 C98.39946698 14.16611774 142.40364199 36.50532652 178.4375 71.3125 C179.05834473 71.91143066 179.67918945 72.51036133 180.31884766 73.12744141 C197.79124966 90.07501532 212.49609254 109.08517144 224.4375 130.3125 C224.79763184 130.93850098 225.15776367 131.56450195 225.52880859 132.20947266 C247.14387459 169.96200969 256.91451339 212.73338058 256.75 255.9375 C256.74784485 256.95540619 256.7456897 257.97331238 256.74346924 259.02206421 C256.69379854 273.63113523 256.44290191 287.96325853 253.4375 302.3125 C253.13948486 303.77478027 253.13948486 303.77478027 252.83544922 305.26660156 C240.39188992 364.75333972 208.47836978 421.27905968 159.4375 458.3125 C158.82132812 458.78333008 158.20515625 459.25416016 157.5703125 459.73925781 C125.96522149 483.76094336 90.36209434 500.30024816 51.4375 508.3125 C49.93582275 508.62791748 49.93582275 508.62791748 48.40380859 508.94970703 C16.68386711 515.30174225 -18.93624941 514.99858653 -50.5625 508.3125 C-51.60438477 508.09287598 -52.64626953 507.87325195 -53.71972656 507.64697266 C-111.03150728 495.14596214 -165.93763553 462.48808844 -201.5625 415.3125 C-202.03333008 414.69632812 -202.50416016 414.08015625 -202.98925781 413.4453125 C-230.97062614 376.63050653 -248.6879043 334.23576277 -254.5625 288.3125 C-254.6560376 287.6517749 -254.7495752 286.9910498 -254.84594727 286.31030273 C-255.79652199 278.98035345 -255.82090699 271.63189285 -255.875 264.25 C-255.88958252 263.58637451 -255.90416504 262.92274902 -255.91918945 262.23901367 C-256.12356252 252.89151482 -255.95541434 246.32548773 -249.59765625 239.0703125 C-248.94667969 238.53148437 -248.29570312 237.99265625 -247.625 237.4375 C-246.97660156 236.88320312 -246.32820312 236.32890625 -245.66015625 235.7578125 C-239.15892443 231.27837903 -232.19109083 231.63786272 -224.5625 232.3125 C-217.81019709 234.01675537 -213.53758051 238.81363862 -209.5625 244.3125 C-206.53062541 249.96281173 -206.49841954 256.47311542 -206.32348633 262.76733398 C-205.34662035 294.93900324 -196.700812 326.00038977 -181.5625 354.3125 C-181.24023438 354.91835938 -180.91796875 355.52421875 -180.5859375 356.1484375 C-169.38188733 377.00801058 -153.97470759 397.31571034 -135.5625 412.3125 C-134.50900737 413.2016959 -133.45563272 414.0910316 -132.40234375 414.98046875 C-118.10158461 426.89547719 -102.4545355 436.52856415 -85.5625 444.3125 C-84.428125 444.84359375 -83.29375 445.3746875 -82.125 445.921875 C-32.38998553 468.25658057 23.99573102 467.95958558 74.75 449.4375 C82.93523804 446.32127693 90.72081694 442.43856319 98.4375 438.3125 C99.04335938 437.99023438 99.64921875 437.66796875 100.2734375 437.3359375 C121.13301058 426.13188733 141.44071034 410.72470759 156.4375 392.3125 C157.3266959 391.25900737 158.2160316 390.20563272 159.10546875 389.15234375 C171.02047719 374.85158461 180.65356415 359.2045355 188.4375 342.3125 C188.96859375 341.178125 189.4996875 340.04375 190.046875 338.875 C199.92453154 316.87939369 206.43290574 291.83538742 206.67578125 267.66015625 C206.6855751 266.85112854 206.69536896 266.04210083 206.70545959 265.20855713 C207.07166751 227.08009212 200.52127691 192.13330415 182.4375 158.3125 C182.11523438 157.70664063 181.79296875 157.10078125 181.4609375 156.4765625 C170.25688733 135.61698942 154.84970759 115.30928966 136.4375 100.3125 C135.38400737 99.4233041 134.33063272 98.5339684 133.27734375 97.64453125 C118.97658461 85.72952281 103.3295355 76.09643585 86.4375 68.3125 C85.303125 67.78140625 84.16875 67.2503125 83 66.703125 C30.89088019 43.30227027 -26.86311004 45.33287176 -79.5625 65.3125 C-116.37412576 79.91458577 -146.10233983 106.89989093 -169.6484375 138.07421875 C-174.1349602 144.00073892 -178.00134374 148.66279318 -185.5625 150.3125 C-193.25023143 151.03734325 -200.0533718 150.78908434 -206.5625 146.3125 C-211.16634359 142.08790023 -215.18238066 137.61604485 -215.75289536 131.15692711 C-215.83742987 128.422194 -215.85555956 125.69382084 -215.85302734 122.95776367 C-215.85974457 121.91649826 -215.86646179 120.87523285 -215.87338257 119.80241394 C-215.89237306 116.36171693 -215.8962874 112.9212149 -215.8984375 109.48046875 C-215.90486493 107.08539246 -215.91159325 104.69031695 -215.91860962 102.29524231 C-215.9305852 97.27420227 -215.93429017 92.25323105 -215.93310547 87.23217773 C-215.93290232 80.80621755 -215.96019914 74.38069984 -215.99464989 67.95484447 C-216.01691555 63.00736983 -216.02094309 58.06000169 -216.01988602 53.11248207 C-216.02224267 50.74386381 -216.03106977 48.37524265 -216.04655075 46.00667381 C-216.0662021 42.68927641 -216.06037513 39.37283353 -216.04833984 36.05541992 C-216.05957886 35.08215759 -216.07081787 34.10889526 -216.08239746 33.10614014 C-216.01596802 25.88036337 -214.40236364 20.55321915 -209.59765625 15.0703125 C-208.94667969 14.53148437 -208.29570312 13.99265625 -207.625 13.4375 C-206.97660156 12.88320312 -206.32820313 12.32890625 -205.66015625 11.7578125 C-199.15892443 7.27837903 -192.19109083 7.63786272 -184.5625 8.3125 C-177.90290667 9.99335583 -173.37702553 14.77628322 -169.5625 20.3125 C-167.35556572 24.68384965 -167.22126798 28.87357327 -167.1484375 33.67578125 C-167.12907135 34.46776413 -167.1097052 35.25974701 -167.0897522 36.07572937 C-167.03022768 38.59204519 -166.98368042 41.10840744 -166.9375 43.625 C-166.89929519 45.3366079 -166.86024201 47.04819709 -166.8203125 48.75976562 C-166.7245487 52.94385749 -166.6404182 57.12803931 -166.5625 61.3125 C-166.0070752 60.80388428 -165.45165039 60.29526855 -164.87939453 59.77124023 C-159.93352793 55.29967064 -154.91309641 51.1762674 -149.4375 47.375 C-148.70595703 46.86412842 -147.97441406 46.35325684 -147.22070312 45.8269043 C-140.19499396 40.97281937 -132.99113441 36.51912227 -125.5625 32.3125 C-124.93504883 31.95091797 -124.30759766 31.58933594 -123.66113281 31.21679688 C-97.56963861 16.28102988 -68.23372307 6.80423976 -38.5625 2.3125 C-37.44367432 2.13517334 -36.32484863 1.95784668 -35.17211914 1.77514648 C-23.45014053 0.09373659 -11.82751024 -0.04484341 0 0 Z " fill="#000000" transform="translate(255.5625,-0.31250000000000006)"/>
</svg>
