<?xml version="1.0" standalone="no"?>
<!DOCTYPE svg PUBLIC "-//W3C//DTD SVG 20010904//EN"
 "http://www.w3.org/TR/2001/REC-SVG-20010904/DTD/svg10.dtd">
<svg version="1.0" xmlns="http://www.w3.org/2000/svg"
 width="512.000000pt" height="512.000000pt" viewBox="0 0 512.000000 512.000000"
 preserveAspectRatio="xMidYMid meet">

<g transform="translate(0.000000,512.000000) scale(0.100000,-0.100000)"
fill="#000000" stroke="none">
<path d="M2563 5106 c-77 -25 -127 -64 -278 -215 l-149 -151 -96 95 c-132 129
-196 160 -330 160 -83 0 -103 -4 -160 -29 -59 -27 -96 -60 -378 -340 -173
-171 -327 -329 -342 -352 -50 -71 -73 -157 -67 -249 7 -120 37 -177 152 -295
52 -53 95 -100 95 -105 0 -6 -69 -80 -154 -165 -194 -194 -211 -224 -211 -360
0 -138 16 -165 223 -373 253 -254 237 -255 525 31 l207 206 0 -1182 c0 -1325
-3 -1266 72 -1421 57 -120 169 -232 290 -290 152 -74 122 -72 1111 -69 823 3
886 4 937 22 215 71 367 218 442 426 l23 65 3 1483 2 1482 -1182 0 -1183 0
547 548 c604 604 579 574 544 666 -25 65 -323 356 -402 393 -70 32 -176 40
-241 19z m-805 -420 c15 -8 58 -46 97 -85 l70 -71 -348 -348 -347 -347 -85 86
c-92 93 -102 118 -71 177 16 30 560 574 591 591 28 15 61 14 93 -3z m694
-1922 c14 -7 36 -29 47 -47 21 -34 21 -37 21 -979 l0 -945 -23 -34 c-63 -94
-193 -88 -252 12 -20 33 -20 55 -23 947 -2 617 1 926 8 953 27 98 128 141 222
93z m668 -3 c14 -10 35 -33 48 -51 l22 -33 0 -934 c0 -1034 4 -978 -64 -1026
-22 -16 -45 -22 -83 -22 -56 0 -90 18 -127 69 -21 27 -21 34 -21 976 0 942 0
949 21 977 11 15 40 38 65 51 50 26 97 23 139 -7z m679 -8 c64 -49 61 -1 61
-1015 0 -901 0 -923 -20 -963 -53 -110 -212 -111 -264 -1 -14 31 -16 127 -16
966 0 1006 -3 956 53 1008 51 48 126 50 186 5z"/>
<path d="M4200 4273 c-46 -8 -974 -283 -1012 -299 -64 -29 -117 -92 -139 -166
l-8 -28 721 0 720 0 -4 163 c-3 178 -8 196 -70 258 -52 51 -144 83 -208 72z"/>
</g>
</svg>
