<?xml version="1.0" standalone="no"?>
<!DOCTYPE svg PUBLIC "-//W3C//DTD SVG 20010904//EN"
 "http://www.w3.org/TR/2001/REC-SVG-20010904/DTD/svg10.dtd">
<svg version="1.0" xmlns="http://www.w3.org/2000/svg"
 width="512.000000pt" height="512.000000pt" viewBox="0 0 512.000000 512.000000"
 preserveAspectRatio="xMidYMid meet">

<g transform="translate(0.000000,512.000000) scale(0.100000,-0.100000)"
fill="#000000" stroke="none">
<path d="M2192 5103 c-45 -22 -74 -67 -80 -122 -4 -42 4 -61 87 -228 100 -201
120 -223 200 -230 59 -5 108 21 138 73 37 64 31 88 -72 295 -92 183 -97 191
-138 209 -51 24 -92 25 -135 3z"/>
<path d="M3410 5109 c-14 -5 -36 -20 -49 -32 -31 -29 -201 -371 -201 -406 0
-44 41 -112 80 -133 43 -24 119 -20 158 8 38 28 212 373 212 421 0 47 -26 99
-62 125 -34 24 -102 33 -138 17z"/>
<path d="M1591 4198 c-104 -54 -109 -197 -9 -258 30 -18 51 -20 223 -20 217 0
242 7 283 76 40 68 19 145 -52 198 -25 19 -44 21 -214 24 -178 3 -189 2 -231
-20z"/>
<path d="M3705 4206 c-63 -27 -107 -110 -90 -168 14 -45 46 -86 79 -102 28
-13 70 -16 223 -16 170 0 191 2 221 20 101 62 95 212 -11 260 -36 17 -66 20
-217 19 -123 0 -184 -4 -205 -13z"/>
<path d="M2494 4190 c-53 -27 -84 -81 -84 -148 0 -181 -56 -498 -127 -717
-128 -398 -286 -582 -660 -769 l-113 -56 0 -1130 0 -1129 153 -50 c200 -65
315 -97 456 -126 281 -57 408 -65 1086 -65 638 0 654 2 766 61 58 31 142 108
179 164 54 80 75 234 47 343 l-14 51 36 12 c123 41 235 162 275 298 20 67 21
180 2 242 l-14 45 65 29 c94 41 174 119 220 213 32 67 37 87 41 173 5 113 -16
195 -73 275 -19 26 -31 52 -28 58 4 6 17 25 30 42 12 16 34 61 49 100 23 61
25 80 22 164 -3 81 -8 105 -35 160 -57 120 -157 207 -292 252 -65 22 -78 22
-693 26 l-628 3 19 37 c64 128 125 512 126 797 0 131 -3 170 -19 215 -70 206
-215 353 -410 416 -65 21 -106 27 -211 31 -117 4 -134 2 -171 -17z"/>
<path d="M424 2701 c-40 -10 -72 -33 -95 -68 -18 -27 -19 -79 -19 -1279 l0
-1251 23 -34 c46 -69 52 -70 434 -67 327 3 343 4 369 24 15 11 37 33 48 48 21
27 21 33 24 1264 l2 1237 -22 45 c-43 84 -47 85 -413 87 -176 1 -334 -2 -351
-6z"/>
</g>
</svg>
