<svg width="512" height="512" viewBox="0 0 512 512" fill="none" xmlns="http://www.w3.org/2000/svg">
<g clip-path="url(#clip0_7_109)">
<path fill-rule="evenodd" clip-rule="evenodd" d="M326.989 160.896H185.011C113.015 160.896 77.0173 160.896 56.7965 181.948C36.5757 203.001 41.3332 235.526 50.8485 300.576L59.8719 362.263C67.3339 413.276 71.0649 438.782 90.2049 454.056C109.345 469.331 137.575 469.331 194.034 469.331H317.965C374.426 469.331 402.656 469.331 421.797 454.056C440.937 438.782 444.666 413.276 452.128 362.263L461.152 300.576C470.667 235.526 475.424 203 455.205 181.948C434.983 160.896 398.985 160.896 326.989 160.896ZM311.066 336.943C322.978 329.557 322.978 310.441 311.066 303.055L239.138 258.466C227.561 251.29 213.334 260.631 213.334 275.409V364.589C213.334 379.366 227.561 388.708 239.138 381.532L311.066 336.943Z" fill="#111111"/>
<path d="M181.537 42.6669H330.447C335.404 42.6656 339.208 42.6648 342.532 42.9899C366.165 45.3018 385.51 59.5111 393.713 78.6513H118.271C126.473 59.5111 145.817 45.3018 169.451 42.9899C172.775 42.6648 176.577 42.6656 181.537 42.6669Z" fill="#AAAAAA"/>
<path d="M134.617 100.75C104.951 100.75 80.6249 118.665 72.5069 142.431C72.3377 142.926 72.1756 143.424 72.0205 143.925C80.5144 141.353 89.3541 139.672 98.3028 138.525C121.351 135.57 150.478 135.572 184.313 135.574H331.345C365.179 135.572 394.308 135.57 417.354 138.525C426.304 139.672 435.144 141.353 443.637 143.925C443.483 143.424 443.319 142.926 443.151 142.431C435.033 118.665 410.707 100.75 381.041 100.75H134.617Z" fill="#777777"/>
</g>
<defs>
<clipPath id="clip0_7_109">
<rect width="512" height="512" fill="white"/>
</clipPath>
</defs>
</svg>
