<?xml version="1.0" standalone="no"?>
<!DOCTYPE svg PUBLIC "-//W3C//DTD SVG 20010904//EN"
 "http://www.w3.org/TR/2001/REC-SVG-20010904/DTD/svg10.dtd">
<svg version="1.0" xmlns="http://www.w3.org/2000/svg"
 width="512.000000pt" height="512.000000pt" viewBox="0 0 512.000000 512.000000"
 preserveAspectRatio="xMidYMid meet">

<g transform="translate(0.000000,512.000000) scale(0.100000,-0.100000)"
fill="#000000" stroke="none">
<path d="M1292 5104 c-61 -31 -77 -66 -80 -181 l-4 -103 -398 0 c-255 0 -418
-4 -452 -11 -86 -18 -158 -58 -224 -123 -99 -99 -134 -198 -134 -376 l0 -100
605 0 605 0 0 305 0 305 150 0 150 0 0 -305 0 -305 1050 0 1050 0 0 305 0 305
150 0 150 0 0 -305 0 -305 605 0 605 0 0 100 c0 178 -35 277 -134 376 -66 66
-144 108 -227 124 -29 6 -231 10 -450 10 l-399 0 0 91 c0 146 -43 204 -150
204 -107 0 -150 -58 -150 -204 l0 -91 -1050 0 -1050 0 0 91 c0 104 -15 147
-63 181 -39 28 -112 34 -155 12z"/>
<path d="M2 2003 l3 -1908 22 -31 c50 -70 -173 -64 2532 -64 2428 0 2442 0
2481 20 26 13 47 34 60 60 20 39 20 55 20 1935 l0 1895 -2560 0 -2560 0 2
-1907z m1923 1532 c22 -5 105 -81 299 -273 147 -147 281 -285 297 -306 23 -31
29 -49 29 -90 0 -31 -7 -61 -16 -76 -9 -14 -80 -89 -158 -167 -164 -166 -162
-126 -18 -312 111 -143 284 -326 420 -443 113 -99 282 -228 297 -228 6 0 66
57 135 126 166 167 189 184 255 184 42 0 60 -6 91 -29 53 -39 558 -550 574
-579 16 -33 15 -104 -3 -138 -8 -16 -109 -122 -224 -235 -222 -220 -287 -268
-420 -314 -139 -49 -299 -56 -438 -20 -125 32 -372 175 -617 358 -252 189
-552 478 -751 727 -215 267 -404 578 -444 730 -24 89 -23 281 1 369 22 81 64
175 107 238 35 52 421 447 454 466 23 12 75 25 90 21 6 -1 24 -5 40 -9z"/>
<path d="M1728 3032 c-163 -163 -188 -203 -210 -330 -23 -136 8 -232 147 -451
297 -469 717 -889 1187 -1187 218 -138 314 -169 450 -146 127 22 167 47 330
210 l148 146 -157 158 -157 157 -146 -143 c-190 -188 -211 -193 -364 -92 -384
255 -731 600 -983 976 -86 129 -97 162 -72 227 6 15 73 91 150 168 l139 141
-158 157 -158 157 -146 -148z"/>
</g>
</svg>
