<?xml version="1.0" encoding="UTF-8"?>
<svg version="1.1" xmlns="http://www.w3.org/2000/svg" width="512" height="512">
<path d="M0 0 C168.96 0 337.92 0 512 0 C512.12375 63.8240625 512.12375 63.8240625 512.25 128.9375 C512.28641602 142.35656006 512.32283203 155.77562012 512.36035156 169.60131836 C512.37841797 186.02844238 512.37841797 186.02844238 512.3817749 193.72657776 C512.38549101 199.0859034 512.40010371 204.44506587 512.42230225 209.80433655 C512.45063583 216.6549897 512.45793925 223.50541017 512.4522891 230.35611832 C512.45346942 232.86121094 512.46131941 235.36631216 512.47686052 237.87135684 C512.6337929 264.41471371 507.62524752 288.19642916 490 309 C489.3090625 309.825 488.618125 310.65 487.90625 311.5 C472.83094442 328.9109163 450.95458359 341.04084036 428 344 C417.75436428 344.70469385 407.45805943 344.55618491 397.19329977 344.52289867 C393.01870269 344.51376423 388.84417001 344.52785906 384.66958618 344.53881836 C376.51332757 344.5565195 368.35721696 344.55280133 360.20095277 344.5411678 C353.56676672 344.53210044 346.93262188 344.53092368 340.2984314 344.53526306 C338.87716242 344.53618246 338.87716242 344.53618246 337.42718095 344.53712043 C335.50177644 344.53839945 333.57637196 344.53969631 331.65096748 344.5410108 C313.63523545 344.55239197 295.61958509 344.53934166 277.60386646 344.51780933 C262.17629979 344.4999406 246.74885356 344.5030454 231.32128906 344.52148438 C213.36598767 344.54293472 195.4107577 344.55129357 177.45544529 344.53903532 C175.53748641 344.53776125 173.61952751 344.53650376 171.7015686 344.53526306 C170.28639805 344.53433741 170.28639805 344.53433741 168.84263819 344.53339306 C162.22347421 344.52995263 155.60435588 344.53574017 148.98519897 344.54518127 C140.90853864 344.55644905 132.83203363 344.55326145 124.75539088 344.5320583 C120.64178858 344.52161175 116.52844437 344.51731546 112.41484451 344.53065491 C80.71671757 344.62500401 80.71671757 344.62500401 67 340 C66.16389191 339.72507469 65.32778381 339.45014938 64.46633911 339.16689301 C38.33392781 329.71011527 18.72457939 310.16772996 6.97070312 285.25390625 C1.99802192 273.70768069 -0.15691741 261.91829169 -0.12025452 249.40786743 C-0.12111053 248.34358521 -0.12196655 247.27930298 -0.12284851 246.18276978 C-0.12450355 242.6057162 -0.11898027 239.02870945 -0.11352539 235.45166016 C-0.11321907 232.84772938 -0.11335253 230.24379852 -0.11389065 227.63986778 C-0.11442188 221.37002869 -0.10980874 215.10020395 -0.10338932 208.83036854 C-0.09618505 201.57660924 -0.09539433 194.32285494 -0.09460449 187.0690918 C-0.08935566 167.92105893 -0.07539453 148.77302925 -0.0625 129.625 C-0.041875 86.84875 -0.02125 44.0725 0 0 Z M200 64 C198.38646148 67.22707704 198.85959371 70.75467086 198.86628723 74.29989624 C198.86402167 75.16857948 198.86175612 76.03726272 198.85942191 76.93226969 C198.85306191 79.86029595 198.85391255 82.78827617 198.85473633 85.71630859 C198.85174607 87.80860962 198.84834386 89.9009101 198.84455872 91.99320984 C198.8357007 97.68946225 198.83337984 103.38569966 198.83274293 109.08195829 C198.83179524 113.83114552 198.82811856 118.58032922 198.82457083 123.3295151 C198.81641936 134.53120198 198.81398722 145.73288081 198.81469727 156.93457031 C198.81529819 168.50319819 198.80474509 180.07177945 198.7889536 191.64039552 C198.77589304 201.56058834 198.77051275 211.48076589 198.77115268 221.40096724 C198.77140811 227.33115438 198.76853204 233.26130012 198.75797462 239.19147873 C198.74831863 244.7678948 198.74819725 250.3442297 198.75549126 255.92064857 C198.75654023 257.9701442 198.75415578 260.01964481 198.7481308 262.06913185 C198.74045197 264.86156327 198.74502836 267.65371147 198.75276184 270.44613647 C198.74761828 271.26189286 198.74247471 272.07764924 198.73717529 272.91812551 C198.72520296 278.2919002 198.72520296 278.2919002 201 283 C204.57791233 285.38527489 205.77713544 285.54666537 210 285 C212.74318047 283.68137293 215.15079876 281.95088414 217.625 280.1875 C219.23039801 279.08062656 220.83587197 277.97386326 222.44140625 276.8671875 C223.32328613 276.25198242 224.20516602 275.63677734 225.11376953 275.00292969 C228.23639507 272.83595118 231.37853571 270.69894094 234.52734375 268.5703125 C235.0956189 268.18605606 235.66389404 267.80179962 236.24938965 267.40589905 C237.42280784 266.61249391 238.59624973 265.81912381 239.76971436 265.02578735 C242.79862901 262.97593613 245.82318469 260.91968014 248.84765625 258.86328125 C249.44984985 258.45387802 250.05204346 258.04447479 250.67248535 257.62266541 C252.44839053 256.41520871 254.22420352 255.20761655 256 254 C257.07233887 253.27087402 258.14467773 252.54174805 259.24951172 251.79052734 C263.35697125 248.99760906 267.46429596 246.20449281 271.57128906 243.41088867 C279.31502274 238.14400201 287.06275374 232.88303329 294.8125 227.625 C295.68523056 227.03286713 295.68523056 227.03286713 296.57559204 226.42877197 C301.31062128 223.21621044 306.04587052 220.00397324 310.78112793 216.79174805 C311.9675143 215.98694128 313.15389533 215.18212663 314.340271 214.37730408 C315.52437747 213.57402695 316.70850018 212.77077376 317.89263916 211.96754456 C320.81704757 209.98372194 323.74101452 207.99925442 326.6640625 206.01342773 C331.87486241 202.47388895 337.08771479 198.93768246 342.31382751 195.42077637 C344.04586344 194.25474077 345.77666976 193.08690339 347.50708008 191.91845703 C349.64257688 190.47712682 351.78028569 189.0390661 353.9206543 187.60498047 C363.86813921 181.64064497 363.86813921 181.64064497 369.9375 172.5625 C367.70402515 164.07529555 357.79655353 159.73879462 350.8203125 155.17578125 C344.70676799 151.16830661 338.67008556 147.04708154 332.625 142.9375 C331.40140499 142.10638965 330.17777192 141.27533535 328.95410156 140.44433594 C320.11202282 134.43882294 311.27383071 128.42758508 302.43603516 122.41577148 C293.44128242 116.29783411 284.44021531 110.18923156 275.43701172 104.08374023 C268.83954867 99.60910855 262.24829547 95.12558571 255.66333008 90.63256836 C251.57983686 87.85041175 247.48829704 85.08019314 243.39697266 82.30957031 C240.27220193 80.1892768 237.16033599 78.05047786 234.04870605 75.91096497 C231.31360879 74.03473232 228.57046105 72.17050781 225.82562256 70.30856323 C224.49448986 69.40197804 223.16665641 68.49052758 221.84234619 67.57400513 C219.99327586 66.2953739 218.13310862 65.03470138 216.26953125 63.77734375 C215.20323486 63.04765381 214.13693848 62.31796387 213.03833008 61.56616211 C207.48217742 58.70214288 203.89276723 59.09799682 200 64 Z " fill="#000000" transform="translate(0,168)"/>
<path d="M0 0 C52.8 0 105.6 0 160 0 C160 50.16 160 100.32 160 152 C107.2 152 54.4 152 0 152 C0 101.84 0 51.68 0 0 Z " fill="#000000" transform="translate(176,0)"/>
<path d="M0 0 C0 50.16 0 100.32 0 152 C-52.8 152 -105.6 152 -160 152 C-160 73.60703812 -160 73.60703812 -151 55 C-150.57074219 54.10152344 -150.14148438 53.20304687 -149.69921875 52.27734375 C-138.32414139 30.0078261 -118.12664112 12.30692404 -94.34375 4.359375 C-63.14038919 -5.29872925 -36.08867664 0 0 0 Z " fill="#000000" transform="translate(160,0)"/>
<path d="M0 0 C99.03278689 0 99.03278689 0 125 22 C125.825 22.6909375 126.65 23.381875 127.5 24.09375 C146.23836092 40.31842836 154.39435969 60.17602868 160 84 C160 106.44 160 128.88 160 152 C107.2 152 54.4 152 0 152 C0 101.84 0 51.68 0 0 Z " fill="#000000" transform="translate(352,0)"/>
<path d="M0 0 C10.11633563 5.62018646 10.11633563 5.62018646 13.7265625 8.19921875 C14.52191406 8.76278076 15.31726563 9.32634277 16.13671875 9.90698242 C16.95785156 10.49455322 17.77898437 11.08212402 18.625 11.6875 C20.40796098 12.94917984 22.19182035 14.20959103 23.9765625 15.46875 C25.27255371 16.38333984 25.27255371 16.38333984 26.59472656 17.31640625 C29.69848587 19.48891175 32.83813817 21.60080957 36 23.6875 C43.10091276 28.38096946 50.14662942 33.1546422 57.1875 37.9375 C57.78631989 38.34420929 58.38513977 38.75091858 59.00210571 39.16995239 C61.46917156 40.84560126 63.93613097 42.52140656 66.40287781 44.19752502 C71.24180783 47.4854922 76.0826569 50.77062158 80.92422485 54.05470276 C85.56132894 57.20009566 90.19779614 60.34642547 94.83383179 63.49339294 C97.73696144 65.46405051 100.64025954 67.43445879 103.54394531 69.40429688 C106.96747356 71.72686878 110.39002242 74.05088014 113.8125 76.375 C114.83819092 77.07061035 115.86388184 77.7662207 116.9206543 78.48291016 C121.99246671 81.92876544 127.02967591 85.40916614 132 89 C129.10127414 92.08842189 126.11165725 94.3958181 122.5625 96.69921875 C121.49773437 97.39708496 120.43296875 98.09495117 119.3359375 98.81396484 C118.23507812 99.53535645 117.13421875 100.25674805 116 101 C113.892778 102.4186493 111.78862561 103.84186828 109.6875 105.26953125 C108.60702393 106.00316895 107.52654785 106.73680664 106.41333008 107.49267578 C105.27554873 108.26594367 104.13777217 109.0392186 103 109.8125 C101.78087876 110.64051474 100.561721 111.46847573 99.3425293 112.29638672 C96.81855104 114.01038245 94.29472735 115.72460545 91.77099609 117.43896484 C88.12555729 119.91503893 84.47898814 122.38944382 80.83203125 124.86328125 C68.70929983 133.08665473 56.58982208 141.31474851 44.47900391 149.55566406 C38.77506286 153.43613187 33.06732573 157.31088486 27.35546875 161.1796875 C26.065095 162.05402293 24.77473036 162.9283718 23.484375 163.80273438 C21.00202105 165.48478907 18.5188174 167.16557941 16.03515625 168.84570312 C14.90230942 169.61323058 13.76949525 170.38080625 12.63671875 171.1484375 C11.14724731 172.15656494 11.14724731 172.15656494 9.62768555 173.18505859 C7.03385071 174.92957967 7.03385071 174.92957967 4.83520508 176.74072266 C3 178 3 178 0 178 C0 119.26 0 60.52 0 0 Z " fill="#000000" transform="translate(215,251)"/>
</svg>
