<svg width="512" height="512" viewBox="0 0 512 512" fill="none" xmlns="http://www.w3.org/2000/svg">
<g clip-path="url(#clip0_2_39)">
<path d="M320 106.667H288V128H320V106.667Z" fill="black"/>
<path d="M458.667 0H53.3337C47.4457 0 42.667 4.768 42.667 10.6667V181.333C42.667 187.232 47.4457 192 53.3337 192H199.712L250.507 222.475C252.203 223.488 254.102 224 256 224C257.899 224 259.798 223.488 261.494 222.475L312.288 192H458.667C464.555 192 469.334 187.232 469.334 181.333V10.6667C469.334 4.768 464.555 0 458.667 0ZM138.667 85.3333C144.555 85.3333 149.334 90.1013 149.334 96V138.667C149.334 144.565 144.555 149.333 138.667 149.333H96.0003C90.1123 149.333 85.3337 144.565 85.3337 138.667C85.3337 132.768 90.1123 128 96.0003 128H128V106.667H96.0003C90.1123 106.667 85.3337 101.899 85.3337 96V53.3333C85.3337 47.4347 90.1123 42.6667 96.0003 42.6667H138.667C144.555 42.6667 149.334 47.4347 149.334 53.3333C149.334 59.232 144.555 64 138.667 64H106.667V85.3333H138.667ZM245.334 138.667C245.334 144.565 240.555 149.333 234.667 149.333H181.334C175.446 149.333 170.667 144.565 170.667 138.667V53.3333C170.667 47.4347 175.446 42.6667 181.334 42.6667C187.222 42.6667 192 47.4347 192 53.3333V128H224V53.3333C224 47.4347 228.779 42.6667 234.667 42.6667C240.555 42.6667 245.334 47.4347 245.334 53.3333V138.667ZM341.334 138.667C341.334 144.565 336.555 149.333 330.667 149.333H277.334C271.446 149.333 266.667 144.565 266.667 138.667V96V53.3333C266.667 47.4347 271.446 42.6667 277.334 42.6667H320C325.888 42.6667 330.667 47.4347 330.667 53.3333V85.3333C336.555 85.3333 341.334 90.1013 341.334 96V138.667ZM416 85.3333C421.888 85.3333 426.667 90.1013 426.667 96V138.667C426.667 144.565 421.888 149.333 416 149.333H373.334C367.446 149.333 362.667 144.565 362.667 138.667C362.667 132.768 367.446 128 373.334 128H405.334V106.667H373.334C367.446 106.667 362.667 101.899 362.667 96V53.3333C362.667 47.4347 367.446 42.6667 373.334 42.6667H416C421.888 42.6667 426.667 47.4347 426.667 53.3333C426.667 59.232 421.888 64 416 64H384V85.3333H416Z" fill="black"/>
<path d="M309.333 64H288V85.3333H309.333V64Z" fill="black"/>
<path d="M256 245.333C214.826 245.333 181.333 278.837 181.333 320V416C181.333 421.899 186.112 426.667 192 426.667H320C325.888 426.667 330.666 421.899 330.666 416V320C330.666 278.837 297.173 245.333 256 245.333Z" fill="black"/>
<path d="M320 405.333H192C174.357 405.333 160 419.691 160 437.333C160 454.976 174.357 469.333 192 469.333H320C337.643 469.333 352 454.976 352 437.333C352 419.691 337.643 405.333 320 405.333Z" fill="black"/>
<path d="M256 512C226.592 512 202.667 488.075 202.667 458.667C202.667 452.768 207.446 448 213.334 448C219.222 448 224 452.768 224 458.667C224 476.309 238.358 490.667 256 490.667C273.643 490.667 288 476.309 288 458.667C288 452.768 292.779 448 298.667 448C304.555 448 309.334 452.768 309.334 458.667C309.334 488.075 285.408 512 256 512Z" fill="black"/>
</g>
<defs>
<clipPath id="clip0_2_39">
<rect width="512" height="512" fill="white"/>
</clipPath>
</defs>
</svg>
