<?xml version="1.0" encoding="UTF-8"?>
<svg version="1.1" xmlns="http://www.w3.org/2000/svg" width="512" height="512">
<path d="M0 0 C1.92962777 -0.0060443 3.85925074 -0.01382391 5.78886527 -0.02318513 C11.08138316 -0.04374666 16.37363011 -0.03938123 21.66617024 -0.03082395 C27.3779811 -0.02588973 33.08972671 -0.04391746 38.80151367 -0.05889893 C49.98782758 -0.08439812 61.17404548 -0.08797965 72.36038355 -0.0832984 C81.45332695 -0.07973225 90.54624122 -0.08323091 99.63918114 -0.09174728 C100.93336611 -0.09293766 102.22755109 -0.09412804 103.56095379 -0.09535449 C106.19010722 -0.097778 108.81926064 -0.10020626 111.44841405 -0.10263924 C129.1015033 -0.11821353 146.75457895 -0.12605207 164.40767384 -0.11800575 C165.09775567 -0.117693 165.78783751 -0.11738025 166.49883092 -0.11705802 C169.99628302 -0.1154465 173.49373508 -0.11375496 176.99118713 -0.11203142 C178.03305764 -0.11151815 178.03305764 -0.11151815 179.09597603 -0.11099452 C180.50058571 -0.11030121 181.90519538 -0.10960415 183.30980506 -0.10890335 C205.16303671 -0.09819017 227.01610693 -0.11404778 248.86930847 -0.15097046 C273.43320178 -0.19242465 297.99698568 -0.21379098 322.56091708 -0.20581949 C335.56267048 -0.20199445 348.56427684 -0.20698021 361.5660038 -0.23524857 C372.63489182 -0.25907106 383.70354228 -0.26189191 394.77243356 -0.23766823 C400.41855512 -0.22588689 406.06424211 -0.22370158 411.71033478 -0.24767303 C416.88281403 -0.26937823 422.05449555 -0.26320043 427.22693738 -0.23514967 C429.09429845 -0.22985217 430.96172192 -0.23460041 432.82902179 -0.25062139 C444.34487283 -0.34253724 454.08686625 0.24269442 463.21172971 8.26176411 C471.34978758 16.68091616 471.82317104 26.50633448 471.78068542 37.67300415 C471.78939359 39.19179785 471.79976452 40.71058278 471.81166077 42.22935486 C471.83831708 46.33290259 471.83961198 50.43608052 471.83453417 54.53969789 C471.83238589 57.97625711 471.84218419 61.41274287 471.85174501 64.84928626 C471.87389341 72.96343366 471.87483443 81.07739587 471.86271667 89.19155884 C471.85064456 97.53680622 471.87524871 105.88137857 471.91785681 114.22651082 C471.95319308 121.41412494 471.96507511 128.60152521 471.95858133 135.7892229 C471.95497116 140.07205403 471.96007004 144.35440378 471.98801041 148.63715553 C472.01332901 152.66849533 472.00913055 156.69879046 471.98318863 160.73011589 C471.97849232 162.20057671 471.98379909 163.67111291 472.00043488 165.14148712 C472.11005899 175.59307082 470.52391639 184.25593567 463.60805702 192.44311237 C461.90155712 194.03756807 460.21087122 195.28574027 458.23136902 196.52139282 C457.66529277 196.88378398 457.09921652 197.24617514 456.51598644 197.61954784 C448.75272678 201.73738817 440.32143333 201.12176718 431.78141785 201.11831665 C430.01643615 201.13193834 428.25146629 201.14717427 426.48651123 201.16389465 C421.7140247 201.20334618 416.94180986 201.21697744 412.16917634 201.22335267 C409.18553502 201.22842895 406.20196306 201.23894824 403.21834373 201.2513485 C392.80475944 201.29427566 382.39137694 201.31556121 371.97770691 201.3175354 C362.27567529 201.31997383 352.57470896 201.37107456 342.87297803 201.44442731 C334.5338746 201.50524869 326.19512284 201.53145155 317.8557989 201.53087062 C312.87875857 201.53115389 307.90274222 201.54560182 302.92592812 201.59522438 C298.24922016 201.64072129 293.57444439 201.64316394 288.89763451 201.61253548 C287.18273713 201.60862596 285.46772501 201.6200761 283.75305176 201.6480751 C270.78228488 201.84661054 270.78228488 201.84661054 266.92754173 198.55283165 C265.37745806 196.25713227 264.29120963 194.07251816 263.23136902 191.52139282 C254.91091674 179.87275963 240.19613243 171.95968485 226.23136902 169.52139282 C208.61592459 166.85708919 192.30982893 171.25519682 177.73136902 181.23233032 C170.8089912 186.40300888 165.12209831 192.73993423 161.23136902 200.52139282 C137.96962131 200.66175247 114.70794374 200.76745671 91.445858 200.83226585 C80.64407416 200.86316201 69.84255394 200.90526139 59.04093933 200.97402954 C49.62274532 201.03396144 40.2047423 201.07257277 30.78636289 201.08592379 C25.80246659 201.09372423 20.8191165 201.11196817 15.83539581 201.15577316 C11.13703569 201.19673236 6.43944274 201.20901513 1.74092102 201.20003891 C0.02370778 201.20167919 -1.69353316 201.21347492 -3.41059113 201.23662567 C-14.57437147 201.37966386 -23.74455102 200.4841028 -32.68118668 192.89783287 C-40.77186591 184.28986336 -41.36109069 174.70931371 -41.31794739 163.36978149 C-41.32665556 161.85098779 -41.33702648 160.33220286 -41.34892273 158.81343079 C-41.37557904 154.70988305 -41.37687394 150.60670512 -41.37179613 146.50308776 C-41.36964785 143.06652853 -41.37944615 139.63004278 -41.38900697 136.19349939 C-41.41115537 128.07935198 -41.41209639 119.96538977 -41.39997864 111.85122681 C-41.38790652 103.50597942 -41.41251068 95.16140707 -41.45511878 86.81627482 C-41.49045505 79.62866071 -41.50233707 72.44126043 -41.49584329 65.25356275 C-41.49223312 60.97073161 -41.497332 56.68838186 -41.52527237 52.40563011 C-41.55059097 48.37429031 -41.54639252 44.34399518 -41.52045059 40.31266975 C-41.51575429 38.84220894 -41.52106105 37.37167273 -41.53769684 35.90129852 C-41.64732095 25.44971482 -40.06117835 16.78684997 -33.14531898 8.59967327 C-31.43998601 7.00630789 -29.7192545 5.79900051 -27.76863098 4.52139282 C-26.94246473 3.97649167 -26.94246473 3.97649167 -26.09960824 3.42058241 C-18.05320562 -0.93773929 -8.8781906 -0.03931359 0 0 Z M92.32902527 59.02920532 C86.4115054 66.05970379 83.65388342 73.60359657 84.41886902 82.76748657 C85.6605328 90.23040326 89.35735092 96.08378513 95.08683777 100.94326782 C101.53020892 105.36867412 109.27800742 107.66526215 116.53605652 110.41592407 C118.29175964 111.10234985 118.29175964 111.10234985 120.08293152 111.80264282 C121.14334656 112.20547485 122.2037616 112.60830688 123.29631042 113.02334595 C126.67707544 114.74888031 128.81244306 116.60453525 131.23136902 119.52139282 C131.04386902 122.83389282 131.04386902 122.83389282 130.23136902 125.52139282 C123.13152369 128.51080138 116.23973063 128.52501807 109.04386902 125.89639282 C105.69664455 124.43721216 103.2169816 122.81010202 100.54386902 120.33389282 C97.25574037 117.29275975 94.82051748 116.43795376 90.23136902 116.52139282 C85.0761608 118.23979556 82.65069492 120.68274101 80.23136902 125.52139282 C79.59818345 130.67733243 80.31929534 133.31218164 83.23136902 137.52139282 C93.30371099 147.44340133 105.567772 152.38122159 119.54386902 152.89639282 C130.90673275 152.68400285 139.92986142 148.75112926 147.94621277 140.82608032 C154.1688505 134.04051449 156.40775243 126.65553389 156.23136902 117.52139282 C155.03350368 108.9961597 150.75266308 102.39550364 144.26652527 96.83779907 C138.39559109 92.62865632 131.78344402 90.00420816 125.12345886 87.29776001 C121.85037177 85.95473847 118.60521324 84.54679264 115.35636902 83.14639282 C114.18332214 82.64365845 113.01027527 82.14092407 111.80168152 81.62295532 C110.95347839 81.2594397 110.10527527 80.89592407 109.23136902 80.52139282 C109.60636902 78.10342407 109.60636902 78.10342407 110.23136902 75.52139282 C114.37873057 72.7996868 119.44278627 72.98566498 124.23136902 73.52139282 C128.09045265 74.82955676 130.90344102 76.27719112 134.16886902 78.70889282 C138.03606415 80.99764096 140.84167189 81.39583448 145.23136902 80.52139282 C148.36317711 78.89749233 150.47476645 77.51873257 152.60636902 74.70889282 C153.90843031 70.1516783 153.82354824 66.73042539 151.73136902 62.45889282 C144.46453131 53.92035852 134.50262016 49.20691771 123.35636902 48.28311157 C111.14163974 47.99301175 101.19082965 50.23944813 92.32902527 59.02920532 Z M178.58084106 53.73144531 C176.98091328 57.03919411 176.84487349 59.30691949 176.82731628 62.97305298 C176.81463211 64.25854034 176.80194794 65.54402771 176.78887939 66.86846924 C176.79093214 68.26579957 176.79392124 69.6631288 176.79777527 71.06045532 C176.7932086 72.506696 176.78790158 73.95293452 176.78189087 75.39916992 C176.77296493 78.43039763 176.77537324 81.46136188 176.7853241 84.49258423 C176.79675898 88.34907568 176.77668548 92.20464395 176.74740696 96.06101418 C176.72891499 99.05020802 176.72936391 102.03918651 176.73504448 105.02842331 C176.73519641 106.44838115 176.72926004 107.86835483 176.71675301 109.2882576 C176.61989765 122.09642352 178.53337368 131.84167112 187.60246277 141.22451782 C197.02371192 149.45586181 206.66413978 153.10619777 219.02043152 152.82608032 C231.7156216 151.62142725 242.08274586 145.83496489 250.23136902 136.08389282 C256.88191315 127.5878227 256.68073391 117.70885849 256.62980652 107.38076782 C256.63183138 105.92587132 256.63474624 104.47097582 256.63850403 103.01608276 C256.64290243 99.98357371 256.63657349 96.95133156 256.6224823 93.91885376 C256.60533011 90.03959987 256.61528483 86.16096604 256.63319969 82.28173447 C256.64405294 79.28422388 256.64058525 76.28685984 256.63281631 73.28934479 C256.63082173 71.85885799 256.63324745 70.42835769 256.64025497 68.99788666 C256.64790082 67.0001909 256.63417463 65.00244813 256.61955261 63.00479126 C256.61597244 61.30344025 256.61597244 61.30344025 256.61231995 59.56771851 C256.18301569 56.13472888 255.29265075 54.27731016 253.23136902 51.52139282 C249.17321736 48.90613953 246.03992315 47.82014534 241.23136902 48.52139282 C236.28058019 51.04532438 234.33436304 53.44670832 232.23136902 58.52139282 C231.81278408 61.58396276 231.81278408 61.58396276 231.91007996 64.79873657 C231.91427948 66.6309375 231.91427948 66.6309375 231.91856384 68.50015259 C231.9341333 69.80653687 231.94970276 71.11292114 231.96574402 72.45889282 C231.96667244 73.82599931 231.96527109 75.19310917 231.96165466 76.56021118 C231.9490315 82.3434468 231.96599017 88.12610049 232.02189636 93.90908813 C232.05463229 97.45664181 232.05327093 101.00286224 232.03087616 104.55047607 C232.02829049 106.5479928 232.06377934 108.54544235 232.09996033 110.54263306 C232.02901046 119.37771243 232.02901046 119.37771243 229.72514343 122.68106079 C225.02798281 126.8539806 220.67517721 127.80193191 214.51652527 127.75186157 C211.30764878 127.42823129 208.97685744 126.15561212 206.23136902 124.52139282 C204.74636902 124.02639282 204.74636902 124.02639282 203.23136902 123.52139282 C202.15989025 120.30695652 202.09404775 117.96488404 202.07365417 114.58462524 C202.06339203 113.36293137 202.05312988 112.14123749 202.04255676 110.88252258 C202.03911884 110.23008764 202.03568092 109.5776527 202.03213882 108.90544701 C202.02032128 106.8577607 202.00086053 104.8102826 201.97901917 102.76268005 C201.91750525 96.94135517 201.86342103 91.12005182 201.83000183 85.29849243 C201.80899764 81.73517042 201.7736485 78.17222897 201.72924423 74.60912514 C201.70828769 72.59853335 201.70304512 70.58779752 201.69807434 68.57710266 C201.67322464 66.73037712 201.67322464 66.73037712 201.64787292 64.84634399 C201.63574265 63.22776741 201.63574265 63.22776741 201.62336731 61.57649231 C200.97959066 56.55911913 199.26590039 53.39499709 195.41886902 50.14639282 C189.21771593 46.98502066 182.89953491 47.94872587 178.58084106 53.73144531 Z M280.23136902 52.52139282 C277.26348794 57.25754998 276.79923742 61.35821998 276.84318542 66.81826782 C276.83792847 67.62880615 276.83267151 68.43934448 276.82725525 69.27444458 C276.81410575 71.94029294 276.82277527 74.60553891 276.83293152 77.27139282 C276.83090933 79.13174554 276.82799668 80.99209749 276.82423401 82.85244751 C276.8198175 86.74607918 276.82622003 90.639504 276.84025574 94.53311157 C276.8573472 99.51649442 276.84750241 104.49939249 276.82953835 109.48275757 C276.81868233 113.32269931 276.8221552 117.16252668 276.82992172 121.00247192 C276.8319187 122.83963071 276.82948214 124.67679999 276.82248306 126.51394653 C276.81483862 129.08441556 276.82651435 131.65410654 276.84318542 134.22451782 C276.83711273 134.97898193 276.83104004 135.73344604 276.82478333 136.51077271 C276.88157877 141.25319263 277.71461174 144.49866871 280.23136902 148.52139282 C284.67158979 152.38425615 288.40687341 153.10878282 294.12199402 153.01748657 C295.23897675 153.01966942 295.23897675 153.01966942 296.37852478 153.02189636 C297.94849064 153.0202434 299.51847373 153.00874974 301.08830261 152.98794556 C303.46093125 152.95914094 305.83129887 152.96731858 308.20402527 152.9803772 C321.04506995 152.96382989 331.2942352 151.3772841 341.23136902 142.52139282 C348.08640823 134.61284232 350.88256119 125.89588163 350.57902527 115.50967407 C349.78998854 108.72750448 347.32046297 103.62138903 342.79386902 98.58389282 C341.22746277 96.64639282 341.22746277 96.64639282 340.23136902 94.52139282 C340.5528026 91.56244262 341.3646623 89.06003318 342.34074402 86.25186157 C344.69439255 79.03607069 343.21326944 72.32425654 340.23136902 65.52139282 C336.00639617 57.69736902 329.55416053 52.47386392 321.32170105 49.32852173 C315.66181265 47.85027943 309.94506124 47.93083224 304.13468933 47.99990845 C301.97048236 48.02150144 299.80954266 47.99994344 297.64543152 47.97451782 C296.25219512 47.97715903 294.85896073 47.98227972 293.46574402 47.99014282 C292.22018738 47.99465454 290.97463074 47.99916626 289.69132996 48.0038147 C285.50922235 48.62941928 283.4356044 49.77817381 280.23136902 52.52139282 Z " fill="#000000" transform="translate(40.76863098144531,-0.521392822265625)"/>
<path d="M0 0 C7.35546071 5.23869629 13.24097691 11.92654587 15 21 C15.11735527 23.63765835 15.18488524 26.25123345 15.20532227 28.88964844 C15.21522186 29.68027176 15.22512146 30.47089508 15.23532104 31.28547668 C15.26685661 33.89341254 15.29166201 36.5013666 15.31640625 39.109375 C15.33698264 40.91970284 15.35797929 42.73002595 15.37937927 44.54034424 C15.4345292 49.30125086 15.48396967 54.06220034 15.53222656 58.82318115 C15.5824933 63.68294074 15.63815236 68.54263822 15.69335938 73.40234375 C15.80085436 82.93484276 15.90231853 92.46739573 16 102 C16.38961914 101.32308105 16.77923828 100.64616211 17.18066406 99.94873047 C17.70370117 99.05557129 18.22673828 98.16241211 18.765625 97.2421875 C19.27899414 96.35901855 19.79236328 95.47584961 20.32128906 94.56591797 C24.94607574 87.49690866 31.77055216 82.82996932 40 81 C50.45448163 79.9694261 59.63438564 80.46629074 68.4296875 86.73046875 C73.59053839 90.9691348 77.63702008 95.68288786 80 102 C80 103.32 80 104.64 80 106 C80.66 106 81.32 106 82 106 C82.04125 105.195625 82.0825 104.39125 82.125 103.5625 C84.02448178 95.82889559 89.40236664 89.34994264 96 85 C104.71124515 79.81204139 115.18661271 79.54841283 124.93359375 81.625 C134.09804325 84.82755333 140.7184399 91.41476592 145.125 99.921875 C147.08507446 104.57705183 147.29327813 109.25394831 147.5625 114.25 C147.60568359 114.99507813 147.64886719 115.74015625 147.69335938 116.5078125 C147.79896725 118.338349 147.89994201 120.16915176 148 122 C148.3403125 121.35933594 148.680625 120.71867187 149.03125 120.05859375 C153.86536432 111.43175676 159.52349114 105.04949621 169.03125 101.66015625 C178.66525536 99.51785769 189.4451993 99.70913894 198 105 C205.45159248 110.30716314 211.06758035 116.8958268 213 126 C213.09324599 127.44428161 213.13887967 128.89210592 213.14717102 130.33937073 C213.15790398 131.63166092 213.15790398 131.63166092 213.16885376 132.95005798 C213.17154266 133.88765457 213.17423157 134.82525116 213.17700195 135.79125977 C213.18357315 136.78544922 213.19014435 137.77963867 213.19691467 138.80395508 C213.21664508 142.09977297 213.22831699 145.39554503 213.23828125 148.69140625 C213.24235678 149.82244215 213.2464323 150.95347805 213.25063133 152.11878777 C213.27150258 158.11882214 213.28579319 164.11883366 213.29516602 170.11889648 C213.30616232 176.27138101 213.3404802 182.42349703 213.38033772 188.57585239 C213.40670039 193.34189957 213.41487572 198.10786211 213.41844749 202.87397575 C213.42327208 205.13861484 213.43476559 207.40325122 213.45348549 209.66781807 C213.72300374 244.46771175 203.2460338 274.17494212 178.9375 299.4375 C176.77734375 301.62109375 176.77734375 301.62109375 174 304 C173.42646412 304.57202054 172.85292824 305.14404108 172.26201248 305.73339558 C163.74146391 313.09652914 154.12848961 311.96536093 143.49902344 311.8581543 C141.41863157 311.86273293 139.33824451 311.87033582 137.25787354 311.88072205 C131.62978775 311.89975901 126.0026686 311.8751685 120.37468243 311.84148383 C114.47849342 311.81252529 108.58233984 311.82023387 102.68609619 311.82295227 C92.79024297 311.8219635 82.89476528 311.79357409 72.99902344 311.74780273 C61.55968069 311.69513037 50.12080515 311.68113598 38.68135428 311.6888358 C27.66832607 311.69575048 16.65545583 311.67989593 5.64246368 311.65207863 C0.95837697 311.64037678 -3.725636 311.63583204 -8.40973663 311.63687706 C-13.9224019 311.63675122 -19.43463726 311.61643118 -24.9471817 311.58048439 C-26.97001924 311.570402 -28.99290351 311.56708795 -31.01576233 311.57102966 C-33.77678031 311.57523536 -36.53655706 311.5548319 -39.29742432 311.52812195 C-40.49829851 311.53843674 -40.49829851 311.53843674 -41.72343278 311.54895991 C-47.68342023 311.45061363 -51.34846901 309.68628291 -55.62060547 305.3581543 C-56.07322754 304.79008057 -56.52584961 304.22200684 -56.9921875 303.63671875 C-62.61343035 296.96632145 -68.94105584 290.95452179 -75.125 284.8125 C-76.39997412 283.54255313 -77.67471546 282.27237251 -78.94921875 281.00195312 C-81.2890934 278.6701841 -83.63029685 276.33976806 -85.97314453 274.01098633 C-105.78005253 254.31882519 -117.15661425 234.53712729 -117.3125 206.125 C-117.3125 178.52933742 -106.27050676 157.38015403 -87 138 C-85.02745073 136.29852844 -83.01178634 134.65544749 -81 133 C-80.99191315 133.89900528 -80.98382629 134.79801056 -80.97549438 135.72425842 C-80.89742193 144.21341439 -80.81009324 152.70241449 -80.71247292 161.19136906 C-80.66261388 165.55520028 -80.61628322 169.91900852 -80.578125 174.28295898 C-80.54114052 178.49761925 -80.49474549 182.71208216 -80.44193649 186.9265728 C-80.42346228 188.53120892 -80.40832881 190.13588723 -80.39665604 191.74058723 C-80.3796735 193.99531207 -80.3506112 196.24959178 -80.31884766 198.50415039 C-80.30552399 199.78544327 -80.29220032 201.06673615 -80.2784729 202.38685608 C-79.86267311 207.78179577 -79.08434956 211.752998 -75.5 215.875 C-71.42973711 219.33472345 -68.68107343 219.28233741 -63.4765625 219.21484375 C-60.22945841 218.93315491 -58.44817877 218.15142982 -56 216 C-51.95866754 210.51533451 -51.85213476 205.05187549 -51.86869812 198.44270325 C-51.86658241 197.69002959 -51.86446669 196.93735594 -51.86228687 196.161874 C-51.85630373 193.64411548 -51.85728582 191.12640733 -51.8581543 188.60864258 C-51.85512164 186.80149246 -51.85159989 184.99434311 -51.84762573 183.18719482 C-51.83974387 179.29671456 -51.83459447 175.40624343 -51.83133507 171.51575661 C-51.8254171 165.35867646 -51.80886876 159.20165387 -51.78999329 153.04460144 C-51.78365604 150.93513588 -51.77733042 148.82567028 -51.77101612 146.71620464 C-51.7662674 145.1316323 -51.7662674 145.1316323 -51.76142275 143.51504838 C-51.71937897 129.18346369 -51.68637781 114.85190594 -51.67407227 100.52026367 C-51.66568356 90.84964771 -51.64316305 81.17917452 -51.6047166 71.50862998 C-51.58498383 66.39426905 -51.57254218 61.28012141 -51.57755089 56.16571999 C-51.58220816 51.35161054 -51.56833299 46.53790502 -51.54053879 41.72387695 C-51.53364526 39.96233636 -51.53348056 38.20075384 -51.54073906 36.43921471 C-51.58852397 23.53370862 -50.42501158 13.698844 -41.22265625 3.98046875 C-30.38769825 -5.67387871 -12.52753585 -7.74786625 0 0 Z " fill="#000000" transform="translate(274,201)"/>
<path d="M0 0 C4.5478125 -0.12375 4.5478125 -0.12375 9.1875 -0.25 C10.60712036 -0.30462402 10.60712036 -0.30462402 12.05541992 -0.36035156 C16.21574001 -0.41511005 18.4337676 -0.35090458 22.05078125 1.890625 C24.58005296 4.62771263 24.95726811 5.54704196 25.3125 9.3125 C24.95018869 13.58777346 24.03853708 15.04827827 21 18 C18.23434618 18.92188461 16.61716298 19.11785222 13.76953125 19.09765625 C13.04612549 19.09515869 12.32271973 19.09266113 11.57739258 19.09008789 C10.66497803 19.08098389 9.75256348 19.07187988 8.8125 19.0625 C5.904375 19.041875 2.99625 19.02125 0 19 C0 12.73 0 6.46 0 0 Z " fill="#000000" transform="translate(342,109)"/>
<path d="M0 0 C2.24893954 -0.10823773 4.49937575 -0.18569645 6.75 -0.25 C8.00296875 -0.29640625 9.2559375 -0.3428125 10.546875 -0.390625 C14 0 14 0 16.45703125 1.7890625 C18 4 18 4 17.9375 7.625 C17 11 17 11 14 13 C10.64453125 13.1953125 10.64453125 13.1953125 6.8125 13.125 C5.54019531 13.10695313 4.26789063 13.08890625 2.95703125 13.0703125 C1.49330078 13.03550781 1.49330078 13.03550781 0 13 C0 8.71 0 4.42 0 0 Z " fill="#000000" transform="translate(342,72)"/>
</svg>
