<?xml version="1.0" standalone="no"?>
<!DOCTYPE svg PUBLIC "-//W3C//DTD SVG 20010904//EN"
 "http://www.w3.org/TR/2001/REC-SVG-20010904/DTD/svg10.dtd">
<svg version="1.0" xmlns="http://www.w3.org/2000/svg"
 width="512.000000pt" height="512.000000pt" viewBox="0 0 512.000000 512.000000"
 preserveAspectRatio="xMidYMid meet">

<g transform="translate(0.000000,512.000000) scale(0.100000,-0.100000)"
fill="#000000" stroke="none">
<path d="M2405 5103 c-236 -50 -450 -228 -539 -449 -50 -122 -56 -186 -56
-564 0 -332 -1 -353 -20 -390 -23 -45 -80 -80 -130 -80 -76 0 -150 -74 -150
-150 0 -50 35 -107 80 -130 37 -19 58 -20 430 -20 l390 0 0 -90 c0 -71 4 -99
20 -130 23 -45 80 -80 130 -80 50 0 107 35 130 80 16 31 20 59 20 130 l0 90
390 0 c372 0 393 1 430 20 45 23 80 80 80 130 0 76 -74 150 -151 150 -46 0
-108 39 -130 82 -18 34 -19 63 -19 388 0 381 -6 445 -57 565 -75 179 -235 339
-411 410 -131 53 -299 68 -437 38z"/>
<path d="M843 4945 c-55 -24 -90 -97 -78 -163 6 -30 31 -62 143 -175 145 -146
177 -166 245 -153 93 17 147 130 103 214 -17 32 -252 265 -283 281 -30 15 -91
13 -130 -4z"/>
<path d="M4135 4944 c-43 -22 -253 -232 -276 -276 -10 -21 -19 -51 -19 -68 0
-50 35 -107 80 -130 49 -25 90 -25 138 -1 46 24 267 247 281 285 50 129 -83
253 -204 190z"/>
<path d="M700 4209 c-98 -39 -127 -170 -53 -241 45 -43 73 -48 261 -48 199 0
228 7 269 69 48 71 20 175 -57 213 -30 15 -63 18 -215 17 -99 0 -191 -5 -205
-10z"/>
<path d="M3988 4199 c-43 -22 -78 -81 -78 -129 0 -50 35 -107 80 -130 35 -18
59 -20 220 -20 161 0 185 2 220 20 45 23 80 80 80 130 0 50 -35 107 -80 130
-35 18 -58 20 -222 20 -162 -1 -187 -3 -220 -21z"/>
<path d="M1065 3676 c-16 -8 -89 -74 -162 -147 -109 -111 -132 -141 -138 -173
-9 -48 18 -120 56 -148 30 -22 95 -34 136 -23 31 7 275 242 299 287 8 15 14
47 14 71 0 105 -109 176 -205 133z"/>
<path d="M3918 3669 c-43 -22 -78 -81 -78 -129 0 -17 9 -47 19 -68 24 -46 247
-267 285 -281 125 -48 243 70 195 195 -14 38 -235 261 -281 285 -47 24 -93 24
-140 -2z"/>
<path d="M905 2683 c-236 -50 -450 -228 -539 -449 -54 -134 -56 -158 -56 -884
0 -729 2 -753 57 -885 75 -178 230 -333 409 -408 140 -59 68 -57 1784 -57
1397 0 1579 2 1648 16 295 61 525 291 586 586 24 115 24 1381 0 1496 -61 295
-291 525 -586 586 -69 14 -249 16 -1655 15 -1362 -1 -1588 -3 -1648 -16z m547
-594 c105 -22 220 -94 253 -160 37 -70 7 -160 -65 -196 -67 -35 -108 -28 -189
32 -61 45 -166 27 -213 -36 -67 -90 9 -229 125 -229 112 0 228 -50 312 -134
143 -143 173 -347 79 -527 -110 -209 -373 -296 -588 -194 -62 29 -131 86 -151
126 -37 70 -7 160 65 197 67 34 108 27 189 -33 64 -47 173 -27 216 39 62 95
-13 226 -129 226 -110 0 -226 51 -311 135 -178 176 -178 454 -1 630 111 111
258 155 408 124z m878 -9 c26 -13 47 -34 60 -60 19 -38 20 -58 20 -520 0 -462
1 -482 20 -520 23 -45 80 -80 130 -80 50 0 107 35 130 80 19 38 20 58 20 520
0 462 1 482 20 520 23 45 80 80 130 80 50 0 107 -35 130 -80 19 -38 20 -58 20
-524 0 -317 -4 -503 -11 -538 -27 -128 -119 -247 -237 -307 -262 -132 -579 20
-641 307 -7 35 -11 214 -11 538 0 466 1 486 20 524 37 73 124 99 200 60z
m1522 9 c86 -19 158 -59 223 -124 155 -154 177 -383 54 -569 l-31 -46 31 -46
c151 -228 74 -532 -165 -652 -87 -43 -145 -52 -350 -52 -215 0 -248 9 -284 80
-19 38 -20 58 -20 670 0 612 1 632 20 670 36 71 66 79 282 80 103 0 211 -5
240 -11z"/>
<path d="M3610 1650 l0 -150 90 0 c71 0 99 4 130 20 45 23 80 80 80 130 0 50
-35 107 -80 130 -31 16 -59 20 -130 20 l-90 0 0 -150z"/>
<path d="M3610 1050 l0 -150 90 0 c71 0 99 4 130 20 45 23 80 80 80 130 0 50
-35 107 -80 130 -31 16 -59 20 -130 20 l-90 0 0 -150z"/>
</g>
</svg>
