<svg width="512" height="512" viewBox="0 0 512 512" fill="none" xmlns="http://www.w3.org/2000/svg">
<g clip-path="url(#clip0_2_67)">
<path d="M448 112H64C51.2696 112 39.0606 117.057 30.0589 126.059C21.0571 135.061 16 147.27 16 160V448C16 460.73 21.0571 472.939 30.0589 481.941C39.0606 490.943 51.2696 496 64 496H448C460.73 496 472.939 490.943 481.941 481.941C490.943 472.939 496 460.73 496 448V368H432C415.026 368 398.748 361.257 386.745 349.255C374.743 337.252 368 320.974 368 304C368 287.026 374.743 270.748 386.745 258.745C398.748 246.743 415.026 240 432 240H496V160C496 147.27 490.943 135.061 481.941 126.059C472.939 117.057 460.73 112 448 112ZM160 432H96C91.7565 432 87.6869 430.314 84.6863 427.314C81.6857 424.313 80 420.243 80 416C80 411.757 81.6857 407.687 84.6863 404.686C87.6869 401.686 91.7565 400 96 400H160C164.243 400 168.313 401.686 171.314 404.686C174.314 407.687 176 411.757 176 416C176 420.243 174.314 424.313 171.314 427.314C168.313 430.314 164.243 432 160 432Z" fill="black"/>
<path d="M400 304C400 312.487 403.372 320.626 409.373 326.627C415.374 332.629 423.513 336 432 336H496V272H432C423.513 272 415.374 275.371 409.373 281.373C403.372 287.374 400 295.513 400 304ZM224 20.64C221.003 17.66 216.947 15.9873 212.72 15.9873C208.493 15.9873 204.438 17.66 201.44 20.64L142.4 80H283.52L224 20.64ZM369.6 80L310.24 20.64C307.243 17.66 303.187 15.9873 298.96 15.9873C294.733 15.9873 290.678 17.66 287.68 20.64L278.56 29.76L328.8 80H369.6Z" fill="black"/>
</g>
<defs>
<clipPath id="clip0_2_67">
<rect width="512" height="512" fill="white"/>
</clipPath>
</defs>
</svg>
