<?xml version="1.0" standalone="no"?>
<!DOCTYPE svg PUBLIC "-//W3C//DTD SVG 20010904//EN"
 "http://www.w3.org/TR/2001/REC-SVG-20010904/DTD/svg10.dtd">
<svg version="1.0" xmlns="http://www.w3.org/2000/svg"
 width="512.000000pt" height="512.000000pt" viewBox="0 0 512.000000 512.000000"
 preserveAspectRatio="xMidYMid meet">

<g transform="translate(0.000000,512.000000) scale(0.100000,-0.100000)"
fill="#000000" stroke="none">
<path d="M2370 4954 c-472 -43 -892 -205 -1269 -487 -123 -92 -356 -325 -448
-448 -201 -268 -341 -557 -418 -864 -55 -221 -70 -342 -69 -595 0 -255 13
-369 69 -593 213 -848 885 -1520 1734 -1732 180 -45 313 -64 501 -72 1027 -41
1967 581 2335 1547 170 446 200 957 83 1430 -167 681 -634 1262 -1263 1570
-235 115 -464 187 -715 225 -101 15 -447 27 -540 19z m341 -675 c67 -36 97
-68 137 -143 l27 -51 3 -700 3 -700 374 -375 c306 -307 378 -384 395 -425 69
-160 7 -331 -147 -407 -58 -28 -78 -33 -143 -33 -132 0 -127 -4 -631 502 -389
390 -449 454 -465 498 -18 47 -19 91 -19 845 l0 795 27 51 c39 73 69 106 129
139 71 38 102 45 182 40 51 -3 81 -11 128 -36z"/>
</g>
</svg>
